# Blender 4.0.2
# www.blender.org
mtllib Toboggan_Mesh_Wall.mtl
o Plane.001
v 0.092734 -0.355819 0.000000
v -0.097600 -0.354516 -0.000000
v -0.354516 0.097600 -0.000000
v -0.355819 -0.092734 -0.000000
v 0.354516 -0.097600 0.000000
v 0.355819 0.092734 0.000000
v -0.092734 0.355819 -0.000000
v 0.097600 0.354516 0.000000
v 0.261782 0.258220 0.000000
v -0.258220 0.261782 -0.000000
v -0.261782 -0.258220 -0.000000
v 0.258220 -0.261782 0.000000
v 0.500000 0.491152 -0.008847
v 0.491152 0.491152 0.000000
v 0.491152 0.500000 -0.008847
v -0.491152 -0.500000 -0.008848
v -0.500000 -0.491152 -0.008848
v -0.491152 -0.491152 -0.000000
v 0.500000 -0.491152 -0.008847
v 0.491152 -0.500000 -0.008847
v 0.491152 -0.491152 0.000000
v -0.491152 0.500000 -0.008848
v -0.491152 0.491152 -0.000000
v -0.500000 0.491152 -0.008848
v 0.500000 0.491152 -0.150000
v 0.491152 0.500000 -0.150000
v -0.500000 -0.491152 -0.150000
v -0.491152 -0.500000 -0.150000
v 0.491152 -0.500000 -0.150000
v 0.500000 -0.491152 -0.150000
v -0.491152 0.500000 -0.150000
v -0.500000 0.491152 -0.150000
v -0.495576 0.495576 -0.008848
v -0.495576 0.495576 -0.150000
v 0.495576 0.495576 -0.008847
v 0.495576 0.495576 -0.150000
v 0.495576 -0.495576 -0.008847
v 0.495576 -0.495576 -0.150000
v -0.495576 -0.495576 -0.008848
v -0.495576 -0.495576 -0.150000
vn 0.3416 0.8756 0.3416
vn 0.3827 0.9239 -0.0000
vn -0.3827 0.9239 -0.0000
vn -0.3416 0.8756 0.3416
vn -0.8756 0.3416 0.3416
vn -0.9239 0.3827 -0.0000
vn -0.9239 -0.3827 -0.0000
vn -0.8756 -0.3416 0.3416
vn -0.3416 -0.8756 0.3416
vn -0.3827 -0.9239 -0.0000
vn 0.3827 -0.9239 -0.0000
vn 0.3416 -0.8756 0.3416
vn 0.3416 -0.3416 0.8756
vn -0.0000 -0.0000 1.0000
vn -0.3416 -0.3416 0.8756
vn -0.3416 0.3416 0.8756
vn 0.3416 0.3416 0.8756
vn 0.8756 0.3416 0.3416
vn 0.6739 0.6739 0.3029
vn -0.6739 -0.6739 0.3029
vn 0.8756 -0.3416 0.3416
vn 0.6739 -0.6739 0.3029
vn -0.6739 0.6739 0.3029
vn -0.7071 -0.7071 -0.0000
vn 0.7071 -0.7071 -0.0000
vn 0.7071 0.7071 -0.0000
vn -0.7071 0.7071 -0.0000
vn 0.9239 -0.3827 -0.0000
vn 0.9239 0.3827 -0.0000
vt 0.203792 0.498379
vt 0.203792 0.498379
vt 0.692065 0.498379
vt 0.692065 0.498379
vt 0.696463 0.493981
vt 0.696463 0.493981
vt 0.696463 0.005708
vt 0.696463 0.005708
vt 0.692065 0.001310
vt 0.692065 0.001310
vt 0.203792 0.001310
vt 0.203792 0.001310
vt 0.203792 0.005708
vt 0.401833 0.072978
vt 0.496442 0.073626
vt 0.692065 0.005708
vt 0.624147 0.298359
vt 0.576281 0.379968
vt 0.494024 0.426711
vt 0.692065 0.493981
vt 0.271062 0.295940
vt 0.203792 0.493981
vt 0.399415 0.426063
vt 0.317805 0.378198
vt 0.578052 0.121492
vt 0.624795 0.203750
vt 0.692065 0.005708
vt 0.692065 0.493981
vt 0.692065 0.005708
vt 0.203792 0.493981
vt 0.692065 0.493981
vt 0.271710 0.201331
vt 0.203792 0.005708
vt 0.203792 0.493981
vt 0.203792 0.005708
vt 0.319575 0.119721
vt 0.199394 0.493981
vt 0.201593 0.496180
vt 0.694264 0.003509
vt 0.199394 0.005708
vt 0.201593 0.003509
vt 0.694264 0.496180
vt 0.201593 0.003509
vt 0.201593 0.496180
vt 0.199394 0.005708
s 1
f 15/1/1 26/2/2 31/3/3 22/4/4
f 24/5/5 32/6/6 27/7/7 17/8/8
f 16/9/9 28/10/10 29/11/11 20/12/12
f 21/13/13 1/14/14 2/15/14 18/16/15
f 3/17/14 10/18/14 7/19/14 23/20/16
f 6/21/14 14/22/17 8/23/14 9/24/14
f 2/15/14 11/25/14 4/26/14 18/27/15
f 4/26/14 3/17/14 23/28/16 18/29/15
f 14/30/17 23/31/16 7/19/14 8/23/14
f 6/21/14 5/32/14 21/33/13 14/34/17
f 21/35/13 5/32/14 12/36/14 1/14/14
f 13/37/18 35/38/19 15/1/1 14/30/17
f 16/9/9 18/16/15 17/8/8 39/39/20
f 19/40/21 21/33/13 20/12/12 37/41/22
f 22/4/4 33/42/23 24/5/5 23/28/16
f 13/37/18 14/34/17 21/33/13 19/40/21
f 14/30/17 15/1/1 22/4/4 23/31/16
f 18/16/15 16/9/9 20/12/12 21/13/13
f 17/8/8 18/29/15 23/28/16 24/5/5
f 40/39/24 28/10/10 16/9/9 39/39/20
f 37/41/22 20/12/12 29/11/11 38/43/25
f 36/44/26 26/2/2 15/1/1 35/38/19
f 33/42/23 22/4/4 31/3/3 34/42/27
f 19/40/21 30/45/28 25/37/29 13/37/18
f 24/5/5 33/42/23 34/42/27 32/6/6
f 25/37/29 36/44/26 35/38/19 13/37/18
f 19/40/21 37/41/22 38/43/25 30/45/28
f 27/7/7 40/39/24 39/39/20 17/8/8
