# Blender 3.6.2
# www.blender.org
mtllib mur 1.mtl
o Mur_1_
v 0.067073 0.247823 0.495485
v -0.067073 0.247882 0.495368
v -0.067073 -0.248207 0.494717
v 0.067073 -0.247876 0.495380
v 0.067073 -0.247527 -0.496077
v -0.067073 -0.247565 -0.496002
v -0.067073 0.248186 -0.494759
v 0.067073 0.247952 -0.495228
v -0.070275 -0.250000 0.491132
v -0.070275 -0.245566 0.500000
v -0.075000 -0.245566 0.491132
v -0.070275 0.245566 0.500000
v -0.070275 0.250000 0.491132
v -0.075000 0.245566 0.491132
v -0.070275 -0.250000 -0.491132
v -0.075000 -0.245566 -0.491132
v -0.070275 -0.245566 -0.500000
v -0.070275 0.250000 -0.491132
v -0.070275 0.245566 -0.500000
v -0.075000 0.245566 -0.491132
v 0.070275 -0.250000 0.491132
v 0.075000 -0.245566 0.491132
v 0.070275 -0.245566 0.500000
v 0.070275 0.250000 0.491132
v 0.070275 0.245566 0.500000
v 0.075000 0.245566 0.491132
v 0.070275 -0.250000 -0.491132
v 0.070275 -0.245566 -0.500000
v 0.075000 -0.245566 -0.491132
v 0.070275 0.250000 -0.491132
v 0.075000 0.245566 -0.491132
v 0.070275 0.245566 -0.500000
vn 0.4562 -0.4374 0.7750
vn 0.4571 0.4369 0.7747
vn -0.4561 0.4374 0.7750
vn -0.4508 -0.4401 0.7766
vn 0.8816 -0.4086 -0.2363
vn 0.8816 0.4086 -0.2363
vn 0.8816 0.4086 0.2363
vn 0.8816 -0.4086 0.2363
vn 0.3419 0.9165 -0.2076
vn -0.3463 0.9151 -0.2065
vn -0.3408 0.9169 0.2079
vn 0.3398 0.9172 0.2081
vn -0.8816 -0.4086 0.2363
vn -0.8816 0.4086 0.2363
vn -0.8816 0.4086 -0.2363
vn -0.8816 -0.4086 -0.2363
vn -0.4623 -0.4343 -0.7731
vn -0.4511 0.4399 -0.7765
vn 0.4548 0.4380 -0.7754
vn 0.4632 -0.4339 -0.7728
vn -0.3467 -0.9150 0.2064
vn -0.1437 -0.8851 0.4426
vn -0.1453 0.8849 0.4425
vn -0.3361 -0.9183 -0.2091
vn -0.1450 -0.8850 -0.4425
vn -0.1438 0.8851 -0.4426
vn 0.3407 -0.9169 0.2079
vn 0.1453 -0.8849 0.4425
vn 0.1454 0.8849 0.4425
vn 0.3356 -0.9185 -0.2092
vn 0.1448 -0.8850 -0.4425
vn 0.1452 0.8850 -0.4425
vt 0.122758 0.005196
vt 0.099247 0.313743
vt 0.013723 0.314323
vt 0.007850 0.000166
vt 0.593760 0.000166
vt 0.928166 0.000166
vt 0.928166 0.668979
vt 0.593760 0.668979
vt 0.113432 0.992352
vt 0.008383 0.992259
vt 0.012692 0.320608
vt 0.100243 0.320255
vt 0.593427 0.668979
vt 0.259021 0.668979
vt 0.259021 0.000166
vt 0.593427 0.000166
vt 0.244023 0.685879
vt 0.251007 0.999486
vt 0.135869 0.994735
vt 0.158295 0.686603
vt 0.247490 0.007727
vt 0.245543 0.004527
vt 0.248080 0.000166
vt 0.251992 0.006747
vt 0.014983 0.317455
vt 0.007756 0.318550
vt 0.244997 0.679553
vt 0.249945 0.681557
vt 0.242661 0.683143
vt 0.010328 0.995501
vt 0.007784 0.999834
vt 0.003873 0.993230
vt 0.142640 0.007631
vt 0.137960 0.006747
vt 0.141940 0.000166
vt 0.144449 0.004046
vt 0.097906 0.317203
vt 0.105015 0.318151
vt 0.157322 0.680111
vt 0.159731 0.683549
vt 0.152553 0.682177
vt 0.118113 0.993259
vt 0.114115 0.999834
vt 0.111602 0.995820
vt 0.000166 0.000337
vt 0.258688 0.999287
vt 0.129484 0.994263
vt 0.129151 0.005690
s 1
f 23/1/1 25/2/2 12/3/3 10/4/4
f 29/5/5 31/6/6 26/7/7 22/8/8
f 30/9/9 18/10/10 13/11/11 24/12/12
f 11/13/13 14/14/14 20/15/15 16/16/16
f 17/17/17 19/18/18 32/19/19 28/20/20
f 9/21/21 3/22/22 10/23/4 11/24/13
f 12/3/3 2/25/23 13/11/11 14/26/14
f 15/27/24 16/28/16 17/17/17 6/29/25
f 18/10/10 7/30/26 19/31/18 20/32/15
f 21/33/27 22/34/8 23/35/1 4/36/28
f 24/12/12 1/37/29 25/2/2 26/38/7
f 27/39/30 5/40/31 28/20/20 29/41/5
f 30/9/9 31/42/6 32/43/19 8/44/32
f 15/27/24 9/21/21 11/24/13 16/28/16
f 10/4/4 12/3/3 14/26/14 11/45/13
f 13/11/11 18/10/10 20/32/15 14/26/14
f 19/18/18 17/17/17 16/28/16 20/46/15
f 27/39/30 15/27/24 6/29/25 5/40/31
f 18/10/10 30/9/9 8/44/32 7/30/26
f 31/47/6 29/41/5 28/20/20 32/19/19
f 21/33/27 27/39/30 29/41/5 22/34/8
f 30/9/9 24/12/12 26/38/7 31/42/6
f 25/2/2 23/1/1 22/48/8 26/38/7
f 9/21/21 21/33/27 4/36/28 3/22/22
f 24/12/12 13/11/11 2/25/23 1/37/29
f 15/27/24 27/39/30 21/33/27 9/21/21
f 7/30/26 8/44/32 32/43/19 19/31/18
f 5/40/31 6/29/25 17/17/17 28/20/20
f 3/22/22 4/36/28 23/35/1 10/23/4
f 1/37/29 2/25/23 12/3/3 25/2/2
