# Blender 3.6.2
# www.blender.org
mtllib mur carré.mtl
o Mur_4
v 0.067073 0.495646 0.495485
v -0.067073 0.495763 0.495368
v -0.067073 -0.496415 0.494717
v 0.067073 -0.495751 0.495380
v 0.067073 -0.495054 -0.496077
v -0.067073 -0.495130 -0.496002
v -0.067073 0.496373 -0.494759
v 0.067073 0.495904 -0.495228
v -0.070275 -0.500000 0.491132
v -0.070275 -0.491132 0.500000
v -0.075000 -0.491132 0.491132
v -0.070275 0.491132 0.500000
v -0.070275 0.500000 0.491132
v -0.075000 0.491132 0.491132
v -0.070275 -0.500000 -0.491132
v -0.075000 -0.491132 -0.491132
v -0.070275 -0.491132 -0.500000
v -0.070275 0.500000 -0.491132
v -0.070275 0.491132 -0.500000
v -0.075000 0.491132 -0.491132
v 0.070275 -0.500000 0.491132
v 0.075000 -0.491132 0.491132
v 0.070275 -0.491132 0.500000
v 0.070275 0.500000 0.491132
v 0.070275 0.491132 0.500000
v 0.075000 0.491132 0.491132
v 0.070275 -0.500000 -0.491132
v 0.070275 -0.491132 -0.500000
v 0.075000 -0.491132 -0.491132
v 0.070275 0.500000 -0.491132
v 0.075000 0.491132 -0.491132
v 0.070275 0.491132 -0.500000
vn 0.4674 -0.3192 0.8244
vn 0.4684 0.3187 0.8240
vn -0.4673 0.3193 0.8244
vn -0.4616 -0.3221 0.8265
vn 0.9266 -0.2659 -0.2659
vn 0.9266 0.2659 -0.2659
vn 0.9266 0.2659 0.2659
vn 0.9266 -0.2659 0.2659
vn 0.4730 0.8223 -0.3165
vn -0.4790 0.8199 -0.3135
vn -0.4714 0.8229 0.3173
vn 0.4701 0.8234 0.3179
vn -0.9266 -0.2659 0.2659
vn -0.9266 0.2659 0.2659
vn -0.9266 0.2659 -0.2659
vn -0.9266 -0.2659 -0.2659
vn -0.4742 -0.3159 -0.8218
vn -0.4620 0.3219 -0.8264
vn 0.4660 0.3199 -0.8249
vn 0.4751 -0.3154 -0.8215
vn -0.4796 -0.8197 0.3132
vn -0.2259 -0.6888 0.6888
vn -0.2284 0.6884 0.6884
vn -0.4651 -0.8253 -0.3204
vn -0.2278 -0.6885 -0.6885
vn -0.2262 0.6888 -0.6888
vn 0.4713 -0.8229 0.3173
vn 0.2284 -0.6884 0.6884
vn 0.2285 0.6884 0.6884
vn 0.4644 -0.8255 -0.3207
vn 0.2276 -0.6886 -0.6886
vn 0.2281 0.6885 -0.6885
vt 0.093158 0.002336
vt 0.074034 0.509617
vt 0.006182 0.510377
vt 0.006179 0.000162
vt 0.696899 0.500162
vt 0.696899 0.999838
vt 0.197223 0.999838
vt 0.197223 0.500162
vt 0.079918 0.965814
vt 0.004968 0.965783
vt 0.006193 0.516769
vt 0.074158 0.515894
vt 0.197223 0.499838
vt 0.197223 0.000162
vt 0.696899 0.000162
vt 0.696899 0.499838
vt 0.190173 0.464144
vt 0.190887 0.972484
vt 0.103903 0.970405
vt 0.122204 0.464898
vt 0.190841 0.007220
vt 0.189789 0.004212
vt 0.192101 0.000162
vt 0.195653 0.005206
vt 0.007403 0.513520
vt 0.000874 0.513569
vt 0.190088 0.457718
vt 0.195445 0.460873
vt 0.188923 0.461400
vt 0.006016 0.968821
vt 0.003714 0.972840
vt 0.000162 0.967794
vt 0.115845 0.007061
vt 0.110727 0.005208
vt 0.114439 0.000162
vt 0.116667 0.003823
vt 0.072890 0.512979
vt 0.079059 0.512738
vt 0.122136 0.458650
vt 0.123394 0.461928
vt 0.117213 0.461749
vt 0.085023 0.967681
vt 0.081315 0.972712
vt 0.079069 0.968940
vt 0.000162 0.000165
vt 0.196899 0.972473
vt 0.098701 0.970216
vt 0.098377 0.002533
s 1
f 23/1/1 25/2/2 12/3/3 10/4/4
f 29/5/5 31/6/6 26/7/7 22/8/8
f 30/9/9 18/10/10 13/11/11 24/12/12
f 11/13/13 14/14/14 20/15/15 16/16/16
f 17/17/17 19/18/18 32/19/19 28/20/20
f 9/21/21 3/22/22 10/23/4 11/24/13
f 12/3/3 2/25/23 13/11/11 14/26/14
f 15/27/24 16/28/16 17/17/17 6/29/25
f 18/10/10 7/30/26 19/31/18 20/32/15
f 21/33/27 22/34/8 23/35/1 4/36/28
f 24/12/12 1/37/29 25/2/2 26/38/7
f 27/39/30 5/40/31 28/20/20 29/41/5
f 30/9/9 31/42/6 32/43/19 8/44/32
f 15/27/24 9/21/21 11/24/13 16/28/16
f 10/4/4 12/3/3 14/26/14 11/45/13
f 13/11/11 18/10/10 20/32/15 14/26/14
f 19/18/18 17/17/17 16/28/16 20/46/15
f 27/39/30 15/27/24 6/29/25 5/40/31
f 18/10/10 30/9/9 8/44/32 7/30/26
f 31/47/6 29/41/5 28/20/20 32/19/19
f 21/33/27 27/39/30 29/41/5 22/34/8
f 30/9/9 24/12/12 26/38/7 31/42/6
f 25/2/2 23/1/1 22/48/8 26/38/7
f 9/21/21 21/33/27 4/36/28 3/22/22
f 24/12/12 13/11/11 2/25/23 1/37/29
f 15/27/24 27/39/30 21/33/27 9/21/21
f 7/30/26 8/44/32 32/43/19 19/31/18
f 5/40/31 6/29/25 17/17/17 28/20/20
f 3/22/22 4/36/28 23/35/1 10/23/4
f 1/37/29 2/25/23 12/3/3 25/2/2
