# Blender 4.0.2
# www.blender.org
mtllib Net_Mesh_Shadows.mtl
o Plane.001
v -0.000000 0.903211 -0.000000
v 0.000000 0.920497 -0.000000
v -0.000000 0.903211 -1.000000
v 0.000000 0.920497 -1.000000
v -0.000000 0.738723 -0.000000
v 0.000000 0.756009 -0.000000
v -0.000000 0.738723 -1.000000
v 0.000000 0.756009 -1.000000
v -0.000000 0.569353 -0.000000
v 0.000000 0.586639 -0.000000
v -0.000000 0.569353 -1.000000
v 0.000000 0.586639 -1.000000
v -0.000000 0.405323 -0.000000
v 0.000000 0.422609 -0.000000
v -0.000000 0.405323 -1.000000
v 0.000000 0.422609 -1.000000
v -0.000000 0.240530 -0.000000
v 0.000000 0.257816 -0.000000
v -0.000000 0.240530 -1.000000
v 0.000000 0.257816 -1.000000
v -0.000000 0.075737 -0.000000
v 0.000000 0.093023 -0.000000
v -0.000000 0.075737 -1.000000
v 0.000000 0.093023 -1.000000
v -0.000000 0.998117 -0.912418
v 0.000000 0.998117 -0.929704
v -0.000000 -0.001883 -0.912418
v 0.000000 -0.001883 -0.929704
v -0.000000 0.998117 -0.747930
v 0.000000 0.998117 -0.765216
v -0.000000 -0.001883 -0.747930
v 0.000000 -0.001883 -0.765216
v -0.000000 0.998117 -0.578560
v 0.000000 0.998117 -0.595846
v -0.000000 -0.001883 -0.578560
v 0.000000 -0.001883 -0.595846
v -0.000000 0.998117 -0.414530
v 0.000000 0.998117 -0.431816
v -0.000000 -0.001883 -0.414530
v 0.000000 -0.001883 -0.431816
v -0.000000 0.998117 -0.249737
v 0.000000 0.998117 -0.267023
v -0.000000 -0.001883 -0.249737
v 0.000000 -0.001883 -0.267023
v -0.000000 0.998117 -0.084945
v 0.000000 0.998117 -0.102230
v -0.000000 -0.001883 -0.084944
v 0.000000 -0.001883 -0.102230
vn -1.0000 -0.0000 -0.0000
vt 0.000000 0.000000
vt 1.000000 0.000000
vt 1.000000 1.000000
vt 0.000000 1.000000
s 0
f 1/1/1 2/2/1 4/3/1 3/4/1
f 5/1/1 6/2/1 8/3/1 7/4/1
f 9/1/1 10/2/1 12/3/1 11/4/1
f 13/1/1 14/2/1 16/3/1 15/4/1
f 17/1/1 18/2/1 20/3/1 19/4/1
f 21/1/1 22/2/1 24/3/1 23/4/1
f 25/1/1 26/2/1 28/3/1 27/4/1
f 29/1/1 30/2/1 32/3/1 31/4/1
f 33/1/1 34/2/1 36/3/1 35/4/1
f 37/1/1 38/2/1 40/3/1 39/4/1
f 41/1/1 42/2/1 44/3/1 43/4/1
f 45/1/1 46/2/1 48/3/1 47/4/1
