# Blender 4.0.2
# www.blender.org
mtllib Ball.mtl
o Sphere.001
v 0.000000 0.019145 -0.046220
v 0.000000 0.000000 -0.050028
v 0.000000 -0.019145 -0.046220
v 0.000000 -0.046220 -0.019145
v 0.007326 0.046220 -0.017688
v 0.013538 0.035375 -0.032682
v 0.017688 0.019145 -0.042702
v 0.019145 0.000000 -0.046220
v 0.017688 -0.019145 -0.042702
v 0.013538 -0.035375 -0.032682
v 0.007326 -0.046220 -0.017688
v 0.013538 0.046220 -0.013538
v 0.025014 0.035375 -0.025014
v 0.032682 0.019145 -0.032682
v 0.035375 0.000000 -0.035375
v 0.032682 -0.019145 -0.032682
v 0.025014 -0.035375 -0.025014
v 0.013538 -0.046220 -0.013538
v 0.017688 0.046220 -0.007326
v 0.032682 0.035375 -0.013538
v 0.042702 0.019145 -0.017688
v 0.046220 0.000000 -0.019145
v 0.042702 -0.019145 -0.017688
v 0.032682 -0.035375 -0.013538
v 0.017688 -0.046220 -0.007326
v 0.019145 0.046220 0.000000
v 0.035375 0.035375 0.000000
v 0.046220 0.019145 0.000000
v 0.050028 0.000000 0.000000
v 0.046220 -0.019145 0.000000
v 0.035375 -0.035375 0.000000
v 0.019145 -0.046220 0.000000
v 0.017688 0.046220 0.007326
v 0.032682 0.035375 0.013538
v 0.042702 0.019145 0.017688
v 0.046220 0.000000 0.019145
v 0.042702 -0.019145 0.017688
v 0.032682 -0.035375 0.013538
v 0.017688 -0.046220 0.007326
v 0.013538 0.046220 0.013538
v 0.025014 0.035375 0.025014
v 0.032682 0.019145 0.032683
v 0.035375 0.000000 0.035375
v 0.032682 -0.019145 0.032683
v 0.025014 -0.035375 0.025014
v 0.013538 -0.046220 0.013538
v 0.007326 0.046220 0.017688
v 0.013538 0.035375 0.032682
v 0.017688 0.019145 0.042702
v 0.019145 0.000000 0.046220
v 0.017688 -0.019145 0.042702
v 0.013538 -0.035375 0.032682
v 0.007326 -0.046220 0.017688
v -0.000000 0.046220 0.019145
v -0.000000 0.035375 0.035375
v -0.000000 0.019145 0.046220
v -0.000000 0.000000 0.050028
v -0.000000 -0.019145 0.046220
v -0.000000 -0.035375 0.035375
v -0.000000 -0.046220 0.019145
v 0.000000 -0.050028 0.000000
v 0.000000 0.050028 0.000000
v -0.007326 0.046220 0.017688
v -0.013538 0.035375 0.032682
v -0.017688 0.019145 0.042702
v -0.019145 0.000000 0.046220
v -0.017688 -0.019145 0.042702
v -0.013538 -0.035375 0.032682
v -0.007326 -0.046220 0.017688
v -0.013538 0.046220 0.013538
v -0.025014 0.035375 0.025014
v -0.032683 0.019145 0.032682
v -0.035375 0.000000 0.035375
v -0.032683 -0.019145 0.032682
v -0.025014 -0.035375 0.025014
v -0.013538 -0.046220 0.013538
v -0.017688 0.046220 0.007326
v -0.032682 0.035375 0.013538
v -0.042702 0.019145 0.017688
v -0.046220 0.000000 0.019145
v -0.042702 -0.019145 0.017688
v -0.032682 -0.035375 0.013538
v -0.017688 -0.046220 0.007326
v -0.019145 0.046220 -0.000000
v -0.035375 0.035375 -0.000000
v -0.046220 0.019145 -0.000000
v -0.050028 0.000000 -0.000000
v -0.046220 -0.019145 -0.000000
v -0.035375 -0.035375 -0.000000
v -0.019145 -0.046220 -0.000000
v -0.017688 0.046220 -0.007326
v -0.032682 0.035375 -0.013538
v -0.042702 0.019145 -0.017688
v -0.046220 0.000000 -0.019145
v -0.042702 -0.019145 -0.017688
v -0.032682 -0.035375 -0.013538
v -0.017688 -0.046220 -0.007326
v -0.013538 0.046220 -0.013538
v -0.025014 0.035375 -0.025014
v -0.032682 0.019145 -0.032683
v -0.035375 0.000000 -0.035375
v -0.032682 -0.019145 -0.032683
v -0.025014 -0.035375 -0.025014
v -0.013538 -0.046220 -0.013538
v -0.007326 0.046220 -0.017688
v -0.013538 0.035375 -0.032682
v -0.017688 0.019145 -0.042702
v -0.019145 0.000000 -0.046220
v -0.017688 -0.019145 -0.042702
v -0.013538 -0.035375 -0.032682
v -0.007326 -0.046220 -0.017688
v 0.000000 0.046220 -0.019145
v 0.000000 0.035375 -0.035375
v 0.000000 -0.035375 -0.035375
vn -0.0000 -0.9177 -0.3974
vn -0.0000 -0.6952 -0.7189
vn 0.2751 -0.6952 -0.6641
vn 0.1543 -0.9151 -0.3726
vn -0.0000 -0.3744 -0.9273
vn -0.0000 -0.0000 -1.0000
vn 0.3827 -0.0000 -0.9239
vn 0.3549 -0.3744 -0.8567
vn -0.0000 0.3744 -0.9273
vn -0.0000 0.6952 -0.7189
vn 0.2751 0.6952 -0.6641
vn 0.3549 0.3744 -0.8567
vn 0.2810 -0.9177 -0.2810
vn -0.0000 -1.0000 -0.0000
vn -0.0000 1.0000 -0.0000
vn 0.3974 0.9177 -0.0000
vn 0.3726 0.9151 -0.1543
vn 0.2810 0.9177 -0.2810
vn -0.0000 0.9177 -0.3974
vn 0.1543 0.9151 -0.3726
vn 0.6557 -0.3744 -0.6557
vn 0.5083 -0.6952 -0.5083
vn 0.6557 0.3744 -0.6557
vn 0.7071 -0.0000 -0.7071
vn 0.5083 0.6952 -0.5083
vn 0.8567 -0.3744 -0.3549
vn 0.6641 -0.6952 -0.2751
vn 0.8567 0.3744 -0.3549
vn 0.9239 -0.0000 -0.3827
vn 0.6641 0.6952 -0.2751
vn 0.3726 -0.9151 -0.1543
vn 0.3974 -0.9177 -0.0000
vn 0.2810 0.9177 0.2810
vn 0.3726 0.9151 0.1543
vn 0.7189 -0.6952 -0.0000
vn 1.0000 -0.0000 -0.0000
vn 0.9273 -0.3744 -0.0000
vn 0.7189 0.6952 -0.0000
vn 0.9273 0.3744 -0.0000
vn 0.9239 -0.0000 0.3827
vn 0.8567 -0.3744 0.3549
vn 0.6641 0.6952 0.2751
vn 0.8567 0.3744 0.3549
vn 0.3726 -0.9151 0.1543
vn 0.2810 -0.9177 0.2810
vn -0.0000 0.9177 0.3974
vn 0.1543 0.9151 0.3726
vn 0.6641 -0.6952 0.2751
vn 0.6557 -0.3744 0.6557
vn 0.5083 -0.6952 0.5083
vn 0.6557 0.3744 0.6557
vn 0.7071 -0.0000 0.7071
vn 0.5083 0.6952 0.5083
vn 0.3549 0.3744 0.8567
vn 0.3827 -0.0000 0.9239
vn 0.2751 0.6952 0.6641
vn 0.2751 -0.6952 0.6641
vn 0.1543 -0.9151 0.3726
vn 0.3549 -0.3744 0.8567
vn -0.0000 -0.9177 0.3974
vn -0.1543 -0.9151 0.3726
vn -0.2810 -0.9177 0.2810
vn -0.0000 -0.6952 0.7189
vn -0.0000 -0.0000 1.0000
vn -0.0000 -0.3744 0.9273
vn -0.0000 0.6952 0.7189
vn -0.0000 0.3744 0.9273
vn -0.2751 0.6952 0.6641
vn -0.3549 0.3744 0.8567
vn -0.3974 0.9177 -0.0000
vn -0.3726 0.9151 0.1543
vn -0.2810 0.9177 0.2810
vn -0.3549 -0.3744 0.8567
vn -0.2751 -0.6952 0.6641
vn -0.3827 -0.0000 0.9239
vn -0.1543 0.9151 0.3726
vn -0.6557 -0.3744 0.6557
vn -0.5083 -0.6952 0.5083
vn -0.6557 0.3744 0.6557
vn -0.7071 -0.0000 0.7071
vn -0.5083 0.6952 0.5083
vn -0.6641 0.6952 0.2751
vn -0.6641 -0.6952 0.2751
vn -0.3726 -0.9151 0.1543
vn -0.9239 -0.0000 0.3827
vn -0.8567 -0.3744 0.3549
vn -0.8567 0.3744 0.3549
vn -0.3974 -0.9177 -0.0000
vn -0.2810 0.9177 -0.2810
vn -0.3726 0.9151 -0.1543
vn -0.7189 -0.6952 -0.0000
vn -1.0000 -0.0000 -0.0000
vn -0.9273 -0.3744 -0.0000
vn -0.7189 0.6952 -0.0000
vn -0.9273 0.3744 -0.0000
vn -0.3726 -0.9151 -0.1543
vn -0.2810 -0.9177 -0.2810
vn -0.1543 0.9151 -0.3726
vn -0.8567 -0.3744 -0.3549
vn -0.6641 -0.6952 -0.2751
vn -0.8567 0.3744 -0.3549
vn -0.9239 -0.0000 -0.3827
vn -0.6641 0.6952 -0.2751
vn -0.6557 -0.3744 -0.6557
vn -0.5083 -0.6952 -0.5083
vn -0.6557 0.3744 -0.6557
vn -0.7071 -0.0000 -0.7071
vn -0.5083 0.6952 -0.5083
vn -0.2751 -0.6952 -0.6641
vn -0.1543 -0.9151 -0.3726
vn -0.3827 -0.0000 -0.9239
vn -0.3549 -0.3744 -0.8567
vn -0.2751 0.6952 -0.6641
vn -0.3549 0.3744 -0.8567
vt 0.750000 0.125000
vt 0.750000 0.250000
vt 0.687500 0.250000
vt 0.687500 0.125000
vt 0.750000 0.375000
vt 0.750000 0.500000
vt 0.687500 0.500000
vt 0.687500 0.375000
vt 0.750000 0.625000
vt 0.750000 0.750000
vt 0.687500 0.750000
vt 0.687500 0.625000
vt 0.625000 0.125000
vt 0.718750 0.000000
vt 0.531250 1.000000
vt 0.500000 0.875000
vt 0.562500 0.875000
vt 0.625000 0.875000
vt 0.750000 0.875000
vt 0.687500 0.875000
vt 0.625000 0.375000
vt 0.625000 0.250000
vt 0.625000 0.625000
vt 0.625000 0.500000
vt 0.625000 0.750000
vt 0.562500 0.375000
vt 0.562500 0.250000
vt 0.562500 0.625000
vt 0.562500 0.500000
vt 0.562500 0.750000
vt 0.562500 0.125000
vt 0.500000 0.125000
vt 0.593750 0.000000
vt 0.406250 1.000000
vt 0.375000 0.875000
vt 0.437500 0.875000
vt 0.500000 0.250000
vt 0.500000 0.500000
vt 0.500000 0.375000
vt 0.500000 0.750000
vt 0.500000 0.625000
vt 0.437500 0.500000
vt 0.437500 0.375000
vt 0.437500 0.750000
vt 0.437500 0.625000
vt 0.437500 0.125000
vt 0.375000 0.125000
vt 0.468750 0.000000
vt 0.281250 1.000000
vt 0.250000 0.875000
vt 0.312500 0.875000
vt 0.437500 0.250000
vt 0.375000 0.375000
vt 0.375000 0.250000
vt 0.375000 0.625000
vt 0.375000 0.500000
vt 0.375000 0.750000
vt 0.312500 0.625000
vt 0.312500 0.500000
vt 0.312500 0.750000
vt 0.312500 0.250000
vt 0.312500 0.125000
vt 0.312500 0.375000
vt 0.250000 0.125000
vt 0.343750 0.000000
vt 0.187500 0.125000
vt 0.125000 0.125000
vt 0.218750 0.000000
vt 0.250000 0.250000
vt 0.250000 0.500000
vt 0.250000 0.375000
vt 0.250000 0.750000
vt 0.250000 0.625000
vt 0.187500 0.750000
vt 0.187500 0.625000
vt 0.656250 1.000000
vt 0.031250 1.000000
vt 0.000000 0.875000
vt 0.062500 0.875000
vt 0.125000 0.875000
vt 0.187500 0.375000
vt 0.187500 0.250000
vt 0.187500 0.500000
vt 0.187500 0.875000
vt 0.125000 0.375000
vt 0.125000 0.250000
vt 0.125000 0.625000
vt 0.125000 0.500000
vt 0.125000 0.750000
vt 0.062500 0.750000
vt 0.062500 0.250000
vt 0.062500 0.125000
vt 0.062500 0.500000
vt 0.062500 0.375000
vt 0.062500 0.625000
vt 0.000000 0.125000
vt 0.093750 0.000000
vt 0.906250 1.000000
vt 0.875000 0.875000
vt 0.937500 0.875000
vt 1.000000 0.875000
vt 0.000000 0.250000
vt 0.000000 0.500000
vt 0.000000 0.375000
vt 0.000000 0.750000
vt 0.000000 0.625000
vt 0.937500 0.125000
vt 0.875000 0.125000
vt 0.968750 0.000000
vt 1.000000 0.125000
vt 0.781250 1.000000
vt 0.812500 0.875000
vt 1.000000 0.250000
vt 1.000000 0.375000
vt 0.937500 0.375000
vt 0.937500 0.250000
vt 1.000000 0.500000
vt 1.000000 0.625000
vt 0.937500 0.625000
vt 0.937500 0.500000
vt 1.000000 0.750000
vt 0.937500 0.750000
vt 0.875000 0.375000
vt 0.875000 0.250000
vt 0.875000 0.625000
vt 0.875000 0.500000
vt 0.875000 0.750000
vt 0.812500 0.250000
vt 0.812500 0.125000
vt 0.812500 0.500000
vt 0.812500 0.375000
vt 0.812500 0.750000
vt 0.812500 0.625000
vt 0.843750 0.000000
vt 0.156250 1.000000
s 1
f 4/1/1 114/2/2 10/3/3 11/4/4
f 3/5/5 2/6/6 8/7/7 9/8/8
f 1/9/9 113/10/10 6/11/11 7/12/12
f 11/4/4 18/13/13 61/14/14 4/1/1
f 62/15/15 26/16/16 19/17/17 12/18/18
f 114/2/2 3/5/5 9/8/8 10/3/3
f 2/6/6 1/9/9 7/12/12 8/7/7
f 113/10/10 112/19/19 5/20/20 6/11/11
f 10/3/3 9/8/8 16/21/21 17/22/22
f 8/7/7 7/12/12 14/23/23 15/24/24
f 6/11/11 5/20/20 12/18/18 13/25/25
f 11/4/4 10/3/3 17/22/22 18/13/13
f 9/8/8 8/7/7 15/24/24 16/21/21
f 7/12/12 6/11/11 13/25/25 14/23/23
f 17/22/22 16/21/21 23/26/26 24/27/27
f 15/24/24 14/23/23 21/28/28 22/29/29
f 13/25/25 12/18/18 19/17/17 20/30/30
f 18/13/13 17/22/22 24/27/27 25/31/31
f 16/21/21 15/24/24 22/29/29 23/26/26
f 14/23/23 13/25/25 20/30/30 21/28/28
f 25/31/31 32/32/32 61/33/14 18/13/13
f 62/34/15 40/35/33 33/36/34 26/16/16
f 25/31/31 24/27/27 31/37/35 32/32/32
f 23/26/26 22/29/29 29/38/36 30/39/37
f 21/28/28 20/30/30 27/40/38 28/41/39
f 24/27/27 23/26/26 30/39/37 31/37/35
f 22/29/29 21/28/28 28/41/39 29/38/36
f 20/30/30 19/17/17 26/16/16 27/40/38
f 30/39/37 29/38/36 36/42/40 37/43/41
f 28/41/39 27/40/38 34/44/42 35/45/43
f 39/46/44 46/47/45 61/48/14 32/32/32
f 62/49/15 54/50/46 47/51/47 40/35/33
f 31/37/35 30/39/37 37/43/41 38/52/48
f 29/38/36 28/41/39 35/45/43 36/42/40
f 27/40/38 26/16/16 33/36/34 34/44/42
f 32/32/32 31/37/35 38/52/48 39/46/44
f 38/52/48 37/43/41 44/53/49 45/54/50
f 36/42/40 35/45/43 42/55/51 43/56/52
f 34/44/42 33/36/34 40/35/33 41/57/53
f 39/46/44 38/52/48 45/54/50 46/47/45
f 37/43/41 36/42/40 43/56/52 44/53/49
f 35/45/43 34/44/42 41/57/53 42/55/51
f 43/56/52 42/55/51 49/58/54 50/59/55
f 41/57/53 40/35/33 47/51/47 48/60/56
f 46/47/45 45/54/50 52/61/57 53/62/58
f 44/53/49 43/56/52 50/59/55 51/63/59
f 42/55/51 41/57/53 48/60/56 49/58/54
f 53/62/58 60/64/60 61/65/14 46/47/45
f 69/66/61 76/67/62 61/68/14 60/64/60
f 45/54/50 44/53/49 51/63/59 52/61/57
f 53/62/58 52/61/57 59/69/63 60/64/60
f 51/63/59 50/59/55 57/70/64 58/71/65
f 49/58/54 48/60/56 55/72/66 56/73/67
f 52/61/57 51/63/59 58/71/65 59/69/63
f 50/59/55 49/58/54 56/73/67 57/70/64
f 48/60/56 47/51/47 54/50/46 55/72/66
f 56/73/67 55/72/66 64/74/68 65/75/69
f 62/76/15 12/18/18 5/20/20 112/19/19
f 62/77/15 84/78/70 77/79/71 70/80/72
f 59/69/63 58/71/65 67/81/73 68/82/74
f 57/70/64 56/73/67 65/75/69 66/83/75
f 55/72/66 54/50/46 63/84/76 64/74/68
f 60/64/60 59/69/63 68/82/74 69/66/61
f 58/71/65 57/70/64 66/83/75 67/81/73
f 68/82/74 67/81/73 74/85/77 75/86/78
f 66/83/75 65/75/69 72/87/79 73/88/80
f 64/74/68 63/84/76 70/80/72 71/89/81
f 69/66/61 68/82/74 75/86/78 76/67/62
f 67/81/73 66/83/75 73/88/80 74/85/77
f 65/75/69 64/74/68 71/89/81 72/87/79
f 71/89/81 70/80/72 77/79/71 78/90/82
f 76/67/62 75/86/78 82/91/83 83/92/84
f 74/85/77 73/88/80 80/93/85 81/94/86
f 72/87/79 71/89/81 78/90/82 79/95/87
f 83/92/84 90/96/88 61/97/14 76/67/62
f 62/98/15 98/99/89 91/100/90 84/101/70
f 75/86/78 74/85/77 81/94/86 82/91/83
f 73/88/80 72/87/79 79/95/87 80/93/85
f 83/92/84 82/91/83 89/102/91 90/96/88
f 81/94/86 80/93/85 87/103/92 88/104/93
f 79/95/87 78/90/82 85/105/94 86/106/95
f 82/91/83 81/94/86 88/104/93 89/102/91
f 80/93/85 79/95/87 86/106/95 87/103/92
f 78/90/82 77/79/71 84/78/70 85/105/94
f 97/107/96 104/108/97 61/109/14 90/110/88
f 62/111/15 112/19/19 105/112/98 98/99/89
f 89/113/91 88/114/93 95/115/99 96/116/100
f 87/117/92 86/118/95 93/119/101 94/120/102
f 85/121/94 84/101/70 91/100/90 92/122/103
f 90/110/88 89/113/91 96/116/100 97/107/96
f 88/114/93 87/117/92 94/120/102 95/115/99
f 86/118/95 85/121/94 92/122/103 93/119/101
f 96/116/100 95/115/99 102/123/104 103/124/105
f 94/120/102 93/119/101 100/125/106 101/126/107
f 92/122/103 91/100/90 98/99/89 99/127/108
f 97/107/96 96/116/100 103/124/105 104/108/97
f 95/115/99 94/120/102 101/126/107 102/123/104
f 93/119/101 92/122/103 99/127/108 100/125/106
f 104/108/97 103/124/105 110/128/109 111/129/110
f 102/123/104 101/126/107 108/130/111 109/131/112
f 100/125/106 99/127/108 106/132/113 107/133/114
f 111/129/110 4/1/1 61/134/14 104/108/97
f 103/124/105 102/123/104 109/131/112 110/128/109
f 101/126/107 100/125/106 107/133/114 108/130/111
f 99/127/108 98/99/89 105/112/98 106/132/113
f 109/131/112 108/130/111 2/6/6 3/5/5
f 107/133/114 106/132/113 113/10/10 1/9/9
f 110/128/109 109/131/112 3/5/5 114/2/2
f 108/130/111 107/133/114 1/9/9 2/6/6
f 106/132/113 105/112/98 112/19/19 113/10/10
f 111/129/110 110/128/109 114/2/2 4/1/1
f 62/135/15 70/80/72 63/84/76 54/50/46
