# Blender 4.0.2
# www.blender.org
mtllib Pancarte_Mesh-2.mtl
o Cube
v -1.154689 -0.000128 0.727652
v -1.154689 0.041943 0.727652
v -1.154689 -0.000128 -0.132307
v -1.154689 0.041943 -0.132307
v 0.671581 -0.000128 0.727652
v 0.671581 0.041943 0.727652
v 0.671581 -0.000128 -0.132307
v 0.671581 0.041943 -0.132307
v 0.087987 0.040026 0.307094
v 0.087987 0.458587 0.036343
v 0.087987 0.040026 0.036343
v 0.114724 0.040026 0.307094
v 0.114724 0.458587 0.036343
v 0.114724 0.040026 0.036343
v -0.520148 0.040026 0.307094
v -0.520148 0.458587 0.036343
v -0.520148 0.040026 0.036343
v -0.493411 0.040026 0.307094
v -0.493411 0.458587 0.036343
v -0.493411 0.040026 0.036343
v 0.334620 0.041943 -0.000000
v 0.618153 0.474018 -0.000000
v 0.420339 0.410717 -0.000000
v 0.420339 0.276204 -0.000000
v 0.768491 0.634906 -0.000000
v 0.789591 0.803707 -0.000000
v 0.718378 0.927670 -0.000000
v 0.575952 1.014708 -0.000000
v 0.589140 1.117571 -0.000000
v 0.792229 1.172959 -0.000000
v 1.101345 1.195642 -0.000000
v 1.289664 1.172959 -0.000000
v 1.452135 1.259997 -0.000000
v 1.491698 1.416666 -0.000000
v 1.393582 1.647712 -0.000000
v 1.411517 1.798051 -0.000000
v 1.299687 1.967906 -0.000000
v 1.173613 1.978456 -0.000000
v 1.033825 1.996392 -0.000000
v 0.838121 1.880341 -0.000000
v 0.707828 1.993754 -0.000000
v 0.690948 2.151478 -0.000000
v 0.567512 2.337159 -0.000000
v 0.446714 2.407317 -0.000000
v 0.483639 2.610933 -0.000000
v 0.262088 2.789756 -0.000000
v -0.038589 2.797669 -0.000000
v -0.173629 2.497519 -0.000000
v -0.197895 2.125630 -0.000000
v -0.370916 2.111387 -0.000000
v -0.560817 2.059165 -0.000000
v -0.661570 1.872429 -0.000000
v -0.624645 1.619227 -0.000000
v -0.954334 1.740025 -0.000000
v -1.219141 1.659845 -0.000000
v -1.383721 1.506341 -0.000000
v -1.454934 1.273185 -0.000000
v -1.383721 1.083284 -0.000000
v -1.156895 1.012071 -0.000000
v -0.980182 0.935583 -0.000000
v -0.708517 0.932945 -0.000000
v -0.349752 1.020701 -0.000000
v -0.504458 0.867725 -0.000000
v -0.658405 0.729857 -0.000000
v -0.737530 0.529406 -0.000000
v -0.895781 0.431818 -0.000000
v -1.030294 0.386980 -0.000000
v -1.093595 0.286754 -0.000000
v -1.051395 0.133778 -0.000000
v -0.895781 0.041943 -0.000000
v 0.768491 0.634906 0.039563
v 0.789591 0.803707 0.039563
v 0.618153 0.474018 0.039563
v 0.420339 0.410717 0.039563
v 0.420339 0.276204 0.039563
v 0.334620 0.041943 0.039563
v 0.718378 0.927670 0.039563
v 0.575952 1.014708 0.039563
v 0.589140 1.117571 0.039563
v 0.792229 1.172959 0.039563
v 1.101345 1.195642 0.039563
v 1.289664 1.172959 0.039563
v 1.452135 1.259997 0.039563
v 1.491698 1.416666 0.039563
v 1.393582 1.647712 0.039563
v 1.411517 1.798051 0.039563
v 1.299687 1.967906 0.039563
v 1.173613 1.978456 0.039563
v 1.033825 1.996392 0.039563
v 0.838121 1.880341 0.039563
v 0.707828 1.993754 0.039563
v 0.690948 2.151478 0.039563
v 0.567512 2.337159 0.039563
v 0.446714 2.407317 0.039563
v 0.483639 2.610933 0.039563
v 0.262088 2.789756 0.039563
v -0.038589 2.797669 0.039563
v -0.173629 2.497519 0.039563
v -0.197895 2.125630 0.039563
v -0.370916 2.111387 0.039563
v -0.560817 2.059165 0.039563
v -0.661570 1.872429 0.039563
v -0.624645 1.619227 0.039563
v -0.954334 1.740025 0.039563
v -1.219141 1.659845 0.039563
v -1.383721 1.506341 0.039563
v -1.454934 1.273185 0.039563
v -1.383721 1.083284 0.039563
v -1.156895 1.012071 0.039563
v -0.980182 0.935583 0.039563
v -0.708517 0.932945 0.039563
v -0.349752 1.020701 0.039563
v -0.504458 0.867725 0.039563
v -0.658405 0.729857 0.039563
v -0.737530 0.529406 0.039563
v -0.895781 0.431818 0.039563
v -1.030294 0.386980 0.039563
v -1.093595 0.286754 0.039563
v -1.051395 0.133778 0.039563
v -0.895781 0.041943 0.039563
v -1.154689 0.041943 0.727652
v -1.154689 0.041943 -0.132307
v 0.671581 0.041943 0.727652
v 0.671581 0.041943 -0.132307
vn -1.0000 -0.0000 -0.0000
vn -0.0000 -0.0000 -1.0000
vn 1.0000 -0.0000 -0.0000
vn -0.0000 -0.0000 1.0000
vn -0.0000 0.5431 0.8396
vn -0.5942 0.8043 -0.0000
vn -0.9836 0.1806 -0.0000
vn 0.1053 0.9944 -0.0000
vn -0.1911 0.9816 -0.0000
vn -0.4209 0.9071 -0.0000
vn -0.5958 0.8031 -0.0000
vn 0.9391 -0.3436 -0.0000
vn 0.9843 -0.1765 -0.0000
vn -0.9895 -0.1443 -0.0000
vn -0.5101 0.8601 -0.0000
vn -0.9878 0.1559 -0.0000
vn 0.9788 0.2047 -0.0000
vn 0.7068 0.7074 -0.0000
vn 0.3440 0.9390 -0.0000
vn 0.0270 0.9996 -0.0000
vn 0.6566 0.7543 -0.0000
vn 0.8759 0.4825 -0.0000
vn -0.7755 -0.6314 -0.0000
vn 0.5214 0.8533 -0.0000
vn -0.4890 0.8723 -0.0000
vn 0.9381 0.3465 -0.0000
vn -0.5082 -0.8612 -0.0000
vn 0.9919 -0.1272 -0.0000
vn -0.8413 0.5405 -0.0000
vn 0.6766 0.7363 -0.0000
vn 0.2631 -0.9648 -0.0000
vn 0.1681 -0.9858 -0.0000
vn -0.9995 -0.0324 -0.0000
vn 0.5022 0.8647 -0.0000
vn -0.0232 -0.9997 -0.0000
vn -0.6545 -0.7561 -0.0000
vn 0.9840 -0.1784 -0.0000
vn 0.9240 0.3823 -0.0000
vn 0.1759 -0.9844 -0.0000
vn -0.3484 -0.9373 -0.0000
vn 0.3287 0.9444 -0.0000
vn 0.7659 -0.6429 -0.0000
vn -0.2032 -0.9791 -0.0000
vn -0.4746 0.8802 -0.0000
vn 0.9968 0.0801 -0.0000
vn 0.1138 -0.9935 -0.0000
vn 0.2376 -0.9714 -0.0000
vn -0.9697 0.2443 -0.0000
vn 0.9895 0.1445 -0.0000
vn -0.7031 0.7111 -0.0000
vn -0.6852 0.7283 -0.0000
vn 0.8992 -0.4376 -0.0000
vn -0.9979 0.0651 -0.0000
vn 0.9708 0.2398 -0.0000
vn -0.8146 0.5801 -0.0000
vn 0.5228 -0.8525 -0.0000
vn -0.0820 0.9966 -0.0000
vn -0.1735 0.9848 -0.0000
vn 0.4746 0.8802 -0.0000
vn -0.7525 0.6586 -0.0000
vn 0.3048 -0.9524 -0.0000
vn -0.0000 1.0000 -0.0000
vt 0.377917 0.654950
vt 0.377917 0.663757
vt 0.197904 0.663757
vt 0.197904 0.654950
vt 0.031095 0.663757
vt 0.039902 0.663757
vt 0.039902 0.966569
vt 0.031095 0.966569
vt 0.197904 0.975375
vt 0.197904 0.966569
vt 0.377917 0.966569
vt 0.377917 0.975375
vt 0.420104 0.966569
vt 0.411297 0.966569
vt 0.411297 0.663757
vt 0.420104 0.663757
vt 0.583010 0.577602
vt 0.663071 0.701371
vt 0.550184 0.650624
vt 0.669710 0.573308
vt 0.669710 0.697077
vt 0.589648 0.573308
vt 0.680841 0.782069
vt 0.760902 0.905838
vt 0.648015 0.855091
vt 0.767541 0.777775
vt 0.767541 0.901544
vt 0.687479 0.777775
vt 0.972564 0.448666
vt 0.784423 0.621277
vt 0.747745 0.629065
vt 0.952807 0.400819
vt 0.719831 0.611594
vt 0.933936 0.380251
vt 0.715450 0.587388
vt 0.955303 0.342821
vt 0.729728 0.561661
vt 0.955721 0.297128
vt 0.740236 0.524539
vt 0.935266 0.268357
vt 0.724214 0.482787
vt 0.906986 0.259392
vt 0.728412 0.440109
vt 0.872998 0.266064
vt 0.730607 0.395014
vt 0.860584 0.248485
vt 0.972563 0.105638
vt 0.959930 0.141740
vt 0.909218 0.054567
vt 0.956634 0.076132
vt 0.927953 0.164691
vt 0.890870 0.029063
vt 0.883868 0.211525
vt 0.849941 0.018779
vt 0.829183 0.034852
vt 0.791647 0.096921
vt 0.805292 0.051720
vt 0.504373 0.465809
vt 0.508004 0.419248
vt 0.563723 0.530499
vt 0.526193 0.511451
vt 0.537248 0.369838
vt 0.608398 0.509566
vt 0.604607 0.342057
vt 0.646150 0.496471
vt 0.688060 0.458763
vt 0.552649 0.265832
vt 0.574360 0.231206
vt 0.563439 0.308520
vt 0.598819 0.204755
vt 0.575985 0.038673
vt 0.634950 0.034936
vt 0.550357 0.144485
vt 0.528899 0.079645
vt 0.657868 0.071251
vt 0.755814 0.097857
vt 0.731106 0.076108
vt 0.686182 0.065032
vt 0.483015 0.191318
vt 0.463258 0.239164
vt 0.258196 0.010918
vt 0.294874 0.018707
vt 0.444387 0.259733
vt 0.230282 0.028390
vt 0.465755 0.297163
vt 0.225901 0.052595
vt 0.466172 0.342855
vt 0.240179 0.078322
vt 0.445718 0.371627
vt 0.250687 0.115445
vt 0.417438 0.380592
vt 0.234665 0.157197
vt 0.383449 0.373920
vt 0.238864 0.199875
vt 0.371035 0.391499
vt 0.241059 0.244970
vt 0.483015 0.534346
vt 0.467086 0.563852
vt 0.419669 0.585417
vt 0.470382 0.498244
vt 0.438404 0.475293
vt 0.401321 0.610921
vt 0.394319 0.428459
vt 0.360392 0.621205
vt 0.339634 0.605132
vt 0.315743 0.588264
vt 0.302099 0.543063
vt 0.014825 0.174175
vt 0.036645 0.128533
vt 0.074175 0.109485
vt 0.018456 0.220736
vt 0.047699 0.270146
vt 0.118849 0.130417
vt 0.115058 0.297927
vt 0.156601 0.143513
vt 0.198511 0.181221
vt 0.063100 0.374152
vt 0.073891 0.331463
vt 0.084812 0.408778
vt 0.109270 0.435229
vt 0.086436 0.601311
vt 0.039350 0.560339
vt 0.060808 0.495499
vt 0.145401 0.605048
vt 0.168320 0.568733
vt 0.266265 0.542127
vt 0.241557 0.563876
vt 0.196633 0.574952
vt 0.889850 0.911932
vt 0.889850 0.867901
vt 0.898060 0.867901
vt 0.898060 0.911932
vt 0.966435 0.913076
vt 0.966435 0.942322
vt 0.958225 0.942322
vt 0.958225 0.913076
vt 0.928992 0.865221
vt 0.928992 0.894644
vt 0.920782 0.894644
vt 0.920782 0.865221
vt 0.881819 0.910914
vt 0.881819 0.962679
vt 0.873609 0.962679
vt 0.873609 0.910914
vt 0.889850 0.814802
vt 0.898060 0.814802
vt 0.966435 0.989537
vt 0.958225 0.989537
vt 0.928992 0.919244
vt 0.920782 0.919244
vt 0.912751 0.903243
vt 0.912751 0.932909
vt 0.904541 0.932909
vt 0.904541 0.903243
vt 0.977567 0.989761
vt 0.977566 0.916898
vt 0.985776 0.916898
vt 0.985776 0.989761
vt 0.939587 0.990004
vt 0.939587 0.954158
vt 0.947796 0.954158
vt 0.947796 0.990004
vt 0.928992 0.952174
vt 0.920782 0.952174
vt 0.912751 0.967547
vt 0.904541 0.967547
vt 0.977566 0.859483
vt 0.985776 0.859483
vt 0.939587 0.921241
vt 0.947797 0.921241
vt 0.928992 0.989670
vt 0.920782 0.989670
vt 0.912751 0.989067
vt 0.904541 0.989067
vt 0.977566 0.812781
vt 0.985776 0.812781
vt 0.939587 0.874972
vt 0.947796 0.874972
vt 0.966435 0.541970
vt 0.966435 0.585653
vt 0.958225 0.585653
vt 0.958225 0.541970
vt 0.977566 0.762191
vt 0.985776 0.762191
vt 0.939587 0.845984
vt 0.947797 0.845984
vt 0.966435 0.649972
vt 0.958225 0.649972
vt 0.977566 0.720104
vt 0.985776 0.720104
vt 0.939587 0.803041
vt 0.947797 0.803041
vt 0.966435 0.689333
vt 0.958225 0.689333
vt 0.977566 0.670768
vt 0.985776 0.670769
vt 0.939587 0.743959
vt 0.947796 0.743959
vt 0.966435 0.727581
vt 0.958225 0.727581
vt 0.977566 0.630810
vt 0.985776 0.630810
vt 0.939587 0.681542
vt 0.947797 0.681542
vt 0.966435 0.761113
vt 0.958225 0.761113
vt 0.977566 0.574433
vt 0.985776 0.574433
vt 0.977566 0.497789
vt 0.985776 0.497789
vt 0.939587 0.613243
vt 0.947797 0.613243
vt 0.966435 0.813203
vt 0.958225 0.813203
vt 0.928992 0.693887
vt 0.928992 0.739035
vt 0.920782 0.739035
vt 0.920782 0.693887
vt 0.912751 0.867941
vt 0.904541 0.867941
vt 0.939587 0.535906
vt 0.947797 0.535906
vt 0.966435 0.844621
vt 0.958225 0.844621
vt 0.928992 0.781920
vt 0.920782 0.781919
vt 0.912751 0.822247
vt 0.904541 0.822247
vt 0.889850 0.988828
vt 0.889850 0.952802
vt 0.898060 0.952802
vt 0.898060 0.988828
vt 0.966435 0.886822
vt 0.958225 0.886822
vt 0.928992 0.826640
vt 0.920782 0.826640
vt 0.912751 0.779147
vt 0.904541 0.779147
vt 0.881819 0.990592
vt 0.873609 0.990592
vt 0.197904 0.966569
vt 0.197904 0.663757
vt 0.377917 0.663757
vt 0.377917 0.966569
s 1
usemtl Material.001
f 1/1/1 2/2/1 4/3/1 3/4/1
f 3/5/2 4/6/2 8/7/2 7/8/2
f 7/9/3 8/10/3 6/11/3 5/12/3
f 5/13/4 6/14/4 2/15/4 1/16/4
f 9/17/1 10/18/1 11/19/1
f 14/20/3 13/21/3 12/22/3
f 12/22/5 13/21/5 10/18/5 9/17/5
f 15/23/1 16/24/1 17/25/1
f 20/26/3 19/27/3 18/28/3
f 18/28/5 19/27/5 16/24/5 15/23/5
f 21/29/2 70/30/2 69/31/2 24/32/2
f 24/32/2 69/31/2 68/33/2 23/34/2
f 23/34/2 68/33/2 67/35/2 22/36/2
f 22/36/2 67/35/2 66/37/2 25/38/2
f 25/38/2 66/37/2 65/39/2 26/40/2
f 26/40/2 65/39/2 64/41/2 27/42/2
f 27/42/2 64/41/2 63/43/2 28/44/2
f 28/44/2 63/43/2 62/45/2 29/46/2
f 33/47/2 32/48/2 35/49/2 34/50/2
f 31/51/2 36/52/2 35/49/2 32/48/2
f 30/53/2 37/54/2 36/52/2 31/51/2
f 29/46/2 38/55/2 37/54/2 30/53/2
f 38/55/2 29/46/2 40/56/2 39/57/2
f 56/58/2 55/59/2 58/60/2 57/61/2
f 54/62/2 59/63/2 58/60/2 55/59/2
f 53/64/2 60/65/2 59/63/2 54/62/2
f 60/65/2 53/64/2 62/45/2 61/66/2
f 51/67/2 50/68/2 53/64/2 52/69/2
f 50/68/2 49/70/2 62/45/2 53/64/2
f 62/45/2 49/70/2 40/56/2 29/46/2
f 46/71/2 45/72/2 48/73/2 47/74/2
f 44/75/2 49/70/2 48/73/2 45/72/2
f 41/76/2 40/56/2 49/70/2 42/77/2
f 43/78/2 42/77/2 49/70/2 44/75/2
f 76/79/4 75/80/4 119/81/4 120/82/4
f 75/80/4 74/83/4 118/84/4 119/81/4
f 74/83/4 73/85/4 117/86/4 118/84/4
f 73/85/4 71/87/4 116/88/4 117/86/4
f 71/87/4 72/89/4 115/90/4 116/88/4
f 72/89/4 77/91/4 114/92/4 115/90/4
f 77/91/4 78/93/4 113/94/4 114/92/4
f 78/93/4 79/95/4 112/96/4 113/94/4
f 83/97/4 84/98/4 85/99/4 82/100/4
f 81/101/4 82/100/4 85/99/4 86/102/4
f 80/103/4 81/101/4 86/102/4 87/104/4
f 79/95/4 80/103/4 87/104/4 88/105/4
f 88/105/4 89/106/4 90/107/4 79/95/4
f 106/108/4 107/109/4 108/110/4 105/111/4
f 104/112/4 105/111/4 108/110/4 109/113/4
f 103/114/4 104/112/4 109/113/4 110/115/4
f 110/115/4 111/116/4 112/96/4 103/114/4
f 101/117/4 102/118/4 103/114/4 100/119/4
f 100/119/4 103/114/4 112/96/4 99/120/4
f 112/96/4 79/95/4 90/107/4 99/120/4
f 96/121/4 97/122/4 98/123/4 95/124/4
f 94/125/4 95/124/4 98/123/4 99/120/4
f 91/126/4 92/127/4 99/120/4 90/107/4
f 93/128/4 94/125/4 99/120/4 92/127/4
f 51/129/6 52/130/7 102/131/7 101/132/6
f 38/133/8 39/134/9 89/135/9 88/136/8
f 66/137/10 67/138/11 117/139/11 116/140/10
f 21/141/12 24/142/13 75/143/13 76/144/12
f 52/130/7 53/145/14 103/146/14 102/131/7
f 39/134/9 40/147/15 90/148/15 89/135/9
f 67/138/11 68/149/16 118/150/16 117/139/11
f 26/151/17 27/152/18 77/153/18 72/154/17
f 53/155/19 54/156/20 104/157/20 103/158/19
f 40/159/21 41/160/22 91/161/22 90/162/21
f 68/149/16 69/163/23 119/164/23 118/150/16
f 27/152/18 28/165/24 78/166/24 77/153/18
f 54/156/20 55/167/25 105/168/25 104/157/20
f 41/160/22 42/169/26 92/170/26 91/161/22
f 69/163/23 70/171/27 120/172/27 119/164/23
f 28/165/28 29/173/28 79/174/28 78/166/28
f 55/167/25 56/175/29 106/176/29 105/168/25
f 42/169/26 43/177/30 93/178/30 92/170/26
f 29/179/31 30/180/32 80/181/32 79/182/31
f 56/175/29 57/183/33 107/184/33 106/176/29
f 43/177/30 44/185/34 94/186/34 93/178/30
f 30/180/32 31/187/35 81/188/35 80/181/32
f 57/183/33 58/189/36 108/190/36 107/184/33
f 44/185/37 45/191/38 95/192/38 94/186/37
f 31/187/35 32/193/39 82/194/39 81/188/35
f 58/189/36 59/195/40 109/196/40 108/190/36
f 45/191/38 46/197/41 96/198/41 95/192/38
f 32/193/39 33/199/42 83/200/42 82/194/39
f 59/195/40 60/201/43 110/202/43 109/196/40
f 46/197/41 47/203/44 97/204/44 96/198/41
f 33/199/42 34/205/45 84/206/45 83/200/42
f 60/201/43 61/207/46 111/208/46 110/202/43
f 61/207/46 62/209/47 112/210/47 111/208/46
f 47/203/44 48/211/48 98/212/48 97/204/44
f 34/205/45 35/213/49 85/214/49 84/206/45
f 62/215/50 63/216/51 113/217/51 112/218/50
f 25/219/52 26/151/17 72/154/17 71/220/52
f 48/211/48 49/221/53 99/222/53 98/212/48
f 35/213/49 36/223/54 86/224/54 85/214/49
f 63/216/51 64/225/55 114/226/55 113/217/51
f 22/227/56 25/219/52 71/220/52 73/228/56
f 49/229/57 50/230/58 100/231/58 99/232/57
f 36/223/54 37/233/59 87/234/59 86/224/54
f 64/225/55 65/235/60 115/236/60 114/226/55
f 23/237/61 22/227/56 73/228/56 74/238/61
f 50/230/58 51/129/6 101/132/6 100/231/58
f 37/233/59 38/133/8 88/136/8 87/234/59
f 65/235/60 66/137/10 116/140/10 115/236/60
f 24/142/13 23/239/3 74/240/3 75/143/13
f 124/241/62 122/242/62 121/243/62 123/244/62
