# Blender 4.0.2
# www.blender.org
mtllib Platform_Mesh.mtl
o Cube
v 0.000000 0.000000 -0.100000
v 0.000000 1.000000 -0.100000
v 0.070711 0.000000 -0.070711
v 0.070711 1.000000 -0.070711
v 0.100000 0.000000 0.000000
v 0.100000 1.000000 0.000000
v 0.070711 0.000000 0.070711
v 0.070711 1.000000 0.070711
v 0.000000 0.000000 0.100000
v 0.000000 1.000000 0.100000
v -0.070711 0.000000 0.070711
v -0.070711 1.000000 0.070711
v -0.100000 0.000000 0.000000
v -0.100000 1.000000 0.000000
v -0.070711 0.000000 -0.070711
v -0.070711 1.000000 -0.070711
v -0.205800 1.000000 0.205800
v -0.214500 1.044200 0.250000
v -0.250000 1.044200 0.214500
v -0.210150 1.012946 0.237054
v -0.233158 1.018681 0.233158
v -0.239602 1.044200 0.239602
v -0.237054 1.012946 0.210150
v -0.214500 1.105800 0.250000
v -0.205800 1.150000 0.205800
v -0.250000 1.105800 0.214500
v -0.210150 1.137054 0.237054
v -0.233158 1.131320 0.233158
v -0.237054 1.137054 0.210150
v -0.239602 1.105800 0.239602
v -0.205800 1.000000 -0.205800
v -0.250000 1.044200 -0.214500
v -0.214500 1.044200 -0.250000
v -0.237054 1.012946 -0.210150
v -0.233158 1.018681 -0.233158
v -0.239602 1.044200 -0.239602
v -0.210150 1.012946 -0.237054
v -0.205800 1.150000 -0.205800
v -0.214500 1.105800 -0.250000
v -0.250000 1.105800 -0.214500
v -0.210150 1.137054 -0.237054
v -0.233158 1.131320 -0.233158
v -0.239602 1.105800 -0.239602
v -0.237054 1.137054 -0.210150
v 0.205800 1.000000 0.205800
v 0.250000 1.044200 0.214500
v 0.214500 1.044200 0.250000
v 0.237054 1.012946 0.210150
v 0.233158 1.018681 0.233158
v 0.239602 1.044200 0.239602
v 0.210150 1.012946 0.237054
v 0.205800 1.150000 0.205800
v 0.214500 1.105800 0.250000
v 0.250000 1.105800 0.214500
v 0.210150 1.137054 0.237054
v 0.233158 1.131320 0.233158
v 0.239602 1.105800 0.239602
v 0.237054 1.137054 0.210150
v 0.205800 1.000000 -0.205800
v 0.214500 1.044200 -0.250000
v 0.250000 1.044200 -0.214500
v 0.210150 1.012946 -0.237054
v 0.233158 1.018681 -0.233158
v 0.239602 1.044200 -0.239602
v 0.237054 1.012946 -0.210150
v 0.205800 1.150000 -0.205800
v 0.250000 1.105800 -0.214500
v 0.214500 1.105800 -0.250000
v 0.237054 1.137054 -0.210150
v 0.233158 1.131320 -0.233158
v 0.239602 1.105800 -0.239602
v 0.210150 1.137054 -0.237054
vn -0.0000 -0.0000 1.0000
vn 1.0000 -0.0000 -0.0000
vn -0.0000 1.0000 -0.0000
vn -1.0000 -0.0000 -0.0000
vn -0.0000 -0.0000 -1.0000
vn 0.7071 -0.0000 -0.7071
vn 0.7071 -0.0000 0.7071
vn -0.7071 -0.0000 0.7071
vn -0.7071 -0.0000 -0.7071
vn -0.0000 -1.0000 -0.0000
vn -0.0000 -0.7071 0.7071
vn -0.5677 -0.5963 0.5677
vn -0.7071 -0.7071 -0.0000
vn -0.0000 0.7071 0.7071
vn -0.5677 0.5963 0.5677
vn -0.7071 0.7071 -0.0000
vn -0.5677 -0.5963 -0.5677
vn -0.0000 -0.7071 -0.7071
vn -0.0000 0.7071 -0.7071
vn -0.5677 0.5963 -0.5677
vn -0.7070 -0.0000 -0.7072
vn 0.7071 -0.7071 -0.0000
vn 0.5677 -0.5963 0.5677
vn 0.5677 0.5963 0.5677
vn 0.7071 0.7071 -0.0000
vn 0.5677 -0.5963 -0.5677
vn 0.5677 0.5963 -0.5677
vt 0.960652 0.440170
vt 0.917780 0.440170
vt 0.917780 0.141596
vt 0.960652 0.141596
vt 0.563736 0.538512
vt 0.563736 0.495639
vt 0.862311 0.495639
vt 0.862311 0.538512
vt 0.569791 0.434115
vt 0.569791 0.147651
vt 0.856256 0.147651
vt 0.856256 0.434115
vt 0.862311 0.043254
vt 0.862311 0.086127
vt 0.563736 0.086127
vt 0.563736 0.043254
vt 0.465395 0.141596
vt 0.508267 0.141596
vt 0.508267 0.440170
vt 0.465395 0.440170
vt 0.421890 0.015875
vt 0.421890 0.678980
vt 0.371138 0.678980
vt 0.371138 0.015875
vt 0.320386 0.678980
vt 0.320386 0.015875
vt 0.269635 0.678980
vt 0.269635 0.015875
vt 0.218883 0.678980
vt 0.218883 0.015875
vt 0.168131 0.678980
vt 0.168131 0.015875
vt 0.117379 0.678980
vt 0.117379 0.015875
vt 0.066627 0.678980
vt 0.066627 0.015875
vt 0.015875 0.678980
vt 0.015875 0.015875
vt 0.855493 0.652341
vt 0.858378 0.623032
vt 0.873634 0.623032
vt 0.884803 0.649457
vt 0.960652 0.116889
vt 0.978413 0.116889
vt 0.991414 0.144623
vt 0.859283 0.012492
vt 0.875296 0.012492
vt 0.887018 0.043254
vt 0.887018 0.144623
vt 0.883111 0.116462
vt 0.917780 0.116889
vt 0.859283 0.116889
vt 0.887018 0.086127
vt 0.855493 0.925275
vt 0.884803 0.928159
vt 0.884803 0.943416
vt 0.858378 0.954584
vt 0.539029 0.043254
vt 0.539029 0.025493
vt 0.566764 0.012492
vt 0.434633 0.144623
vt 0.434633 0.128610
vt 0.465395 0.116889
vt 0.539029 0.144623
vt 0.538603 0.120796
vt 0.566764 0.116889
vt 0.508267 0.116889
vt 0.539029 0.086127
vt 0.582560 0.652341
vt 0.553250 0.649457
vt 0.553250 0.634200
vt 0.579675 0.623032
vt 0.887018 0.538512
vt 0.887018 0.556273
vt 0.859283 0.569274
vt 0.991414 0.437143
vt 0.991414 0.453156
vt 0.960652 0.464877
vt 0.887018 0.437143
vt 0.887444 0.460970
vt 0.859283 0.464877
vt 0.917780 0.464877
vt 0.887018 0.495639
vt 0.582560 0.925275
vt 0.579675 0.954584
vt 0.564418 0.954584
vt 0.553250 0.928159
vt 0.465395 0.464877
vt 0.447634 0.464877
vt 0.434633 0.437143
vt 0.566764 0.569274
vt 0.550751 0.569274
vt 0.539029 0.538512
vt 0.566764 0.464877
vt 0.542937 0.465304
vt 0.539029 0.437143
vt 0.539029 0.495639
vt 0.508267 0.464877
s 1
f 47/1/1 53/2/1 24/3/1 18/4/1
f 61/5/2 67/6/2 54/7/2 46/8/2
f 66/9/3 38/10/3 25/11/3 52/12/3
f 19/13/4 26/14/4 40/15/4 32/16/4
f 33/17/5 39/18/5 68/19/5 60/20/5
f 1/21/5 2/22/5 4/23/6 3/24/6
f 3/24/6 4/23/6 6/25/2 5/26/2
f 5/26/2 6/25/2 8/27/7 7/28/7
f 7/28/7 8/27/7 10/29/1 9/30/1
f 9/30/1 10/29/1 12/31/8 11/32/8
f 11/32/8 12/31/8 14/33/4 13/34/4
f 13/34/4 14/33/4 16/35/9 15/36/9
f 15/36/9 16/35/9 2/37/5 1/38/5
f 17/39/10 20/40/11 21/41/12 23/42/13
f 18/4/1 22/43/8 21/44/12 20/45/11
f 19/13/4 23/46/13 21/47/12 22/48/8
f 24/3/1 27/49/14 28/50/15 30/51/8
f 25/11/3 29/52/16 28/50/15 27/49/14
f 26/14/4 30/53/8 28/50/15 29/52/16
f 31/54/10 34/55/13 35/56/17 37/57/18
f 32/16/4 36/58/9 35/59/17 34/60/13
f 33/17/5 37/61/18 35/62/17 36/63/9
f 38/10/3 41/64/19 42/65/20 44/66/16
f 39/18/5 43/67/21 42/65/20 41/64/19
f 40/15/4 44/66/16 42/65/20 43/68/21
f 45/69/10 48/70/22 49/71/23 51/72/11
f 46/8/2 50/73/7 49/74/23 48/75/22
f 47/1/1 51/76/11 49/77/23 50/78/7
f 52/12/3 55/79/14 56/80/24 58/81/25
f 53/2/1 57/82/7 56/80/24 55/79/14
f 54/7/2 58/81/25 56/80/24 57/83/7
f 59/84/10 62/85/18 63/86/26 65/87/22
f 60/20/5 64/88/6 63/89/26 62/90/18
f 61/5/2 65/91/22 63/92/26 64/93/6
f 66/9/3 69/94/25 70/95/27 72/96/19
f 67/6/2 71/97/6 70/95/27 69/94/25
f 68/19/5 72/96/19 70/95/27 71/98/6
f 31/54/10 17/39/10 23/42/13 34/55/13
f 34/60/13 23/46/13 19/13/4 32/16/4
f 18/4/1 24/3/1 30/51/8 22/43/8
f 22/48/8 30/53/8 26/14/4 19/13/4
f 25/11/3 38/10/3 44/66/16 29/52/16
f 29/52/16 44/66/16 40/15/4 26/14/4
f 39/18/5 33/17/5 36/63/9 43/67/21
f 43/68/21 36/58/9 32/16/4 40/15/4
f 59/84/10 31/54/10 37/57/18 62/85/18
f 62/90/18 37/61/18 33/17/5 60/20/5
f 38/10/3 66/9/3 72/96/19 41/64/19
f 41/64/19 72/96/19 68/19/5 39/18/5
f 67/6/2 61/5/2 64/93/6 71/97/6
f 71/98/6 64/88/6 60/20/5 68/19/5
f 45/69/10 59/84/10 65/87/22 48/70/22
f 48/75/22 65/91/22 61/5/2 46/8/2
f 66/9/3 52/12/3 58/81/25 69/94/25
f 69/94/25 58/81/25 54/7/2 67/6/2
f 53/2/1 47/1/1 50/78/7 57/82/7
f 57/83/7 50/73/7 46/8/2 54/7/2
f 17/39/10 45/69/10 51/72/11 20/40/11
f 20/45/11 51/76/11 47/1/1 18/4/1
f 52/12/3 25/11/3 27/49/14 55/79/14
f 55/79/14 27/49/14 24/3/1 53/2/1
f 31/54/10 59/84/10 45/69/10 17/39/10
o Cube.001
v 0.000000 0.980640 -0.100000
v 0.070711 0.980640 -0.070711
v 0.100000 0.980640 0.000000
v 0.070711 0.980640 0.070711
v 0.000000 0.980640 0.100000
v -0.070711 0.980640 0.070711
v -0.100000 0.980640 0.000000
v -0.070711 0.980640 -0.070711
v 0.000000 0.980640 -0.110034
v 0.077806 0.980640 -0.077806
v 0.110034 0.980640 0.000000
v 0.077806 0.980640 0.077806
v 0.000000 0.980640 0.110034
v -0.077806 0.980640 0.077806
v -0.110034 0.980640 0.000000
v -0.077806 0.980640 -0.077806
v 0.000000 1.000000 -0.117952
v 0.083405 1.000000 -0.083405
v 0.117952 1.000000 0.000000
v 0.083405 1.000000 0.083405
v 0.000000 1.000000 0.117952
v -0.083405 1.000000 0.083405
v -0.117952 1.000000 0.000000
v -0.083405 1.000000 -0.083405
vn -0.0000 -1.0000 -0.0000
vn 0.9256 -0.3786 -0.0000
vn 0.6545 -0.3786 0.6545
vn -0.0000 -0.3786 -0.9256
vn 0.6545 -0.3786 -0.6545
vn -0.6545 -0.3786 -0.6545
vn -0.6545 -0.3786 0.6545
vn -0.9256 -0.3786 -0.0000
vn -0.0000 -0.3786 0.9256
vt 0.533509 0.884408
vt 0.533509 0.870891
vt 0.406780 0.870891
vt 0.406780 0.884408
vt 0.278278 0.826932
vt 0.278278 0.813415
vt 0.151549 0.813415
vt 0.151549 0.826932
vt 0.531735 0.826932
vt 0.531735 0.813415
vt 0.405006 0.813415
vt 0.405006 0.826932
vt 0.280052 0.884408
vt 0.280052 0.870891
vt 0.153324 0.870891
vt 0.153324 0.884408
vt 0.024821 0.813415
vt 0.024821 0.826932
vt 0.026595 0.870891
vt 0.026595 0.884408
vt 0.531735 0.785238
vt 0.405006 0.785238
vt 0.280052 0.842714
vt 0.153324 0.842714
vt 0.406780 0.842714
vt 0.151549 0.785238
vt 0.024821 0.785238
vt 0.278278 0.785238
vt 0.026595 0.842714
vt 0.533509 0.842714
s 1
f 79/99/28 87/100/28 88/101/28 80/102/28
f 77/103/28 85/104/28 86/105/28 78/106/28
f 75/107/28 83/108/28 84/109/28 76/110/28
f 73/111/28 81/112/28 82/113/28 74/114/28
f 80/102/28 88/101/28 81/112/28 73/111/28
f 78/106/28 86/105/28 87/115/28 79/116/28
f 76/110/28 84/109/28 85/104/28 77/103/28
f 74/114/28 82/113/28 83/117/28 75/118/28
f 83/108/29 91/119/29 92/120/30 84/109/30
f 81/112/31 89/121/31 90/122/32 82/113/32
f 88/101/33 96/123/33 89/121/31 81/112/31
f 86/105/34 94/124/34 95/125/35 87/115/35
f 84/109/30 92/120/30 93/126/36 85/104/36
f 82/113/32 90/122/32 91/127/29 83/117/29
f 87/100/35 95/128/35 96/123/33 88/101/33
f 85/104/36 93/126/36 94/124/34 86/105/34
