# Blender 4.0.2
# www.blender.org
mtllib PunchingBall_Mesh.mtl
o Cylinder
v 0.000000 -1.000000 -0.086636
v 0.061261 -1.000000 -0.061261
v 0.086636 -1.000000 0.000000
v 0.061261 -1.000000 0.061261
v 0.000000 -1.000000 0.086636
v -0.061261 -1.000000 0.061261
v -0.086636 -1.000000 0.000000
v -0.061261 -1.000000 -0.061261
v 0.000000 -2.300000 -0.098255
v 0.000000 -2.206000 -0.200000
v 0.000000 -2.272468 -0.170200
v 0.069477 -2.300000 -0.069477
v 0.141421 -2.206000 -0.141421
v 0.120349 -2.272468 -0.120349
v 0.098255 -2.300000 0.000000
v 0.200000 -2.206000 0.000000
v 0.170200 -2.272468 0.000000
v 0.069477 -2.300000 0.069477
v 0.141421 -2.206000 0.141421
v 0.120349 -2.272468 0.120349
v -0.000000 -2.300000 0.098255
v 0.000000 -2.206000 0.200000
v -0.000000 -2.272468 0.170200
v -0.069477 -2.300000 0.069477
v -0.141421 -2.206000 0.141421
v -0.120349 -2.272468 0.120349
v -0.098255 -2.300000 -0.000000
v -0.200000 -2.206000 0.000000
v -0.170200 -2.272468 -0.000000
v -0.069477 -2.300000 -0.069477
v -0.141421 -2.206000 -0.141421
v -0.120349 -2.272468 -0.120349
v 0.000000 -2.300000 0.000000
v 0.052930 -0.976349 -0.052930
v 0.000000 -0.976349 -0.074855
v 0.074855 -0.976349 0.000000
v 0.052930 -0.976349 0.052930
v 0.000000 -0.976349 0.074855
v -0.052930 -0.976349 0.052930
v -0.074855 -0.976349 0.000000
v -0.052930 -0.976349 -0.052930
v 0.124277 -1.000000 -0.124277
v 0.141421 -1.022400 -0.141421
v 0.000000 -1.022400 -0.200000
v 0.000000 -1.000000 -0.175754
v 0.175754 -1.000000 0.000000
v 0.200000 -1.022400 0.000000
v 0.124277 -1.000000 0.124277
v 0.141421 -1.022400 0.141421
v 0.000000 -1.000000 0.175754
v 0.000000 -1.022400 0.200000
v -0.124277 -1.000000 0.124277
v -0.141421 -1.022400 0.141421
v -0.175754 -1.000000 0.000000
v -0.200000 -1.022400 0.000000
v -0.124277 -1.000000 -0.124277
v -0.141421 -1.022400 -0.141421
v -0.020710 -0.976349 0.000000
v -0.020710 -0.000000 0.000000
v 0.000000 -0.976349 -0.020710
v 0.000000 -0.000000 -0.020710
v 0.000000 -0.976349 0.020710
v 0.000000 -0.000000 0.020710
v 0.020710 -0.976349 0.000000
v 0.020710 -0.000000 0.000000
vn -0.0000 1.0000 -0.0000
vn 0.4548 0.8890 -0.0531
vn 0.0597 0.9982 -0.0000
vn 0.3592 0.8890 0.2840
vn 0.0531 0.8890 0.4548
vn -0.2840 0.8890 0.3592
vn -0.4548 0.8890 0.0531
vn -0.0000 -0.0541 -0.9985
vn 0.4748 0.3909 -0.7885
vn 0.7017 -0.1229 -0.7017
vn 0.5808 -0.2091 -0.7867
vn 0.0422 0.9982 -0.0422
vn 0.6312 -0.4507 -0.6312
vn -0.0000 -0.8597 -0.5109
vn -0.0000 -1.0000 -0.0000
vn 0.9402 -0.3405 -0.0000
vn 0.8927 -0.4507 -0.0000
vn 0.6649 -0.3405 0.6649
vn 0.6312 -0.4507 0.6312
vn -0.0000 -0.3405 0.9402
vn -0.0000 -0.4507 0.8927
vn -0.6649 -0.3405 0.6649
vn -0.6312 -0.4507 0.6312
vn -0.9402 -0.3405 -0.0000
vn -0.8927 -0.4507 -0.0000
vn -0.6649 -0.3405 -0.6649
vn -0.6312 -0.4507 -0.6312
vn -0.8951 0.4459 -0.0000
vn -0.6329 0.4459 0.6329
vn 0.9924 -0.1229 -0.0000
vn -0.3592 0.8890 -0.2840
vn 0.7017 -0.1229 0.7017
vn -0.0000 -0.1229 0.9924
vn -0.7017 -0.1229 0.7017
vn -0.9924 -0.1229 -0.0000
vn -0.7017 -0.1229 -0.7017
vn -0.0000 0.4459 0.8951
vn 0.6329 0.4459 0.6329
vn 0.8951 0.4459 -0.0000
vn 0.6329 0.4459 -0.6329
vn -0.6329 0.4459 -0.6329
vn -0.0000 0.4459 -0.8951
vn -1.0000 -0.0000 -0.0000
vn -0.0000 -0.0000 -1.0000
vn 1.0000 -0.0000 -0.0000
vn -0.0000 -0.0000 1.0000
vt 0.720909 0.862041
vt 0.692066 0.833198
vt 0.713046 0.782549
vt 0.771558 0.841062
vt 0.651276 0.833198
vt 0.630297 0.782549
vt 0.622433 0.862041
vt 0.571784 0.841062
vt 0.622433 0.902831
vt 0.571784 0.923811
vt 0.651276 0.931674
vt 0.630297 0.982323
vt 0.798351 0.048343
vt 0.798351 0.735734
vt 0.704112 0.735734
vt 0.704112 0.048343
vt 0.720909 0.902831
vt 0.771558 0.923811
vt 0.704112 0.006039
vt 0.798351 0.006039
vt 0.850223 0.782689
vt 0.932528 0.782689
vt 0.914600 0.827089
vt 0.868941 0.826762
vt 0.601184 0.048343
vt 0.601184 0.006039
vt 0.990727 0.840888
vt 0.946654 0.859606
vt 0.498256 0.048343
vt 0.498256 0.006039
vt 0.990727 0.923193
vt 0.946327 0.905265
vt 0.404017 0.048343
vt 0.404017 0.006039
vt 0.932528 0.981392
vt 0.913811 0.937319
vt 0.309779 0.048343
vt 0.309779 0.006039
vt 0.850223 0.981392
vt 0.868152 0.936992
vt 0.206851 0.048343
vt 0.206851 0.006039
vt 0.792024 0.923193
vt 0.836097 0.904475
vt 0.103923 0.048343
vt 0.103923 0.006039
vt 0.792024 0.840888
vt 0.836424 0.858817
vt 0.009684 0.048343
vt 0.009684 0.006039
vt 0.891376 0.882041
vt 0.508461 0.944111
vt 0.459854 0.944111
vt 0.467436 0.926098
vt 0.500550 0.927247
vt 0.601184 0.735734
vt 0.692066 0.931674
vt 0.713046 0.982323
vt 0.498256 0.735734
vt 0.404017 0.735734
vt 0.309779 0.735734
vt 0.206851 0.735734
vt 0.103923 0.735734
vt 0.009684 0.735734
vt 0.427098 0.909741
vt 0.427279 0.863411
vt 0.444382 0.869663
vt 0.443275 0.903171
vt 0.460157 0.829306
vt 0.508763 0.829306
vt 0.501181 0.847318
vt 0.468067 0.846170
vt 0.541338 0.910006
vt 0.524235 0.903754
vt 0.541519 0.863676
vt 0.525342 0.870246
vt 0.798351 0.754905
vt 0.704112 0.754905
vt 0.601184 0.754905
vt 0.498256 0.754905
vt 0.404017 0.754905
vt 0.309779 0.754905
vt 0.206851 0.754905
vt 0.103923 0.754905
vt 0.009684 0.754905
vt 0.825421 0.009380
vt 0.825421 0.609990
vt 0.807404 0.609990
vt 0.807404 0.009380
vt 0.879471 0.009380
vt 0.879471 0.609990
vt 0.861454 0.609990
vt 0.861454 0.009380
vt 0.843438 0.609990
vt 0.843438 0.009380
vt 0.479731 0.875303
vt 0.488886 0.898114
vt 0.472865 0.891292
vt 0.495752 0.882125
s 1
f 3/1/1 4/2/1 48/3/2 46/4/3
f 4/2/1 5/5/1 50/6/4 48/3/2
f 5/5/1 6/7/1 52/8/5 50/6/4
f 6/7/1 7/9/1 54/10/6 52/8/5
f 7/9/1 8/11/1 56/12/7 54/10/6
f 10/13/8 44/14/9 43/15/10 13/16/11
f 2/17/1 3/1/1 46/4/3 42/18/12
f 10/13/8 13/16/11 14/19/13 11/20/14
f 11/21/14 14/22/13 12/23/15 9/24/15
f 13/16/11 16/25/16 17/26/17 14/19/13
f 14/22/13 17/27/17 15/28/15 12/23/15
f 16/25/16 19/29/18 20/30/19 17/26/17
f 17/27/17 20/31/19 18/32/15 15/28/15
f 19/29/18 22/33/20 23/34/21 20/30/19
f 20/31/19 23/35/21 21/36/15 18/32/15
f 22/33/20 25/37/22 26/38/23 23/34/21
f 23/35/21 26/39/23 24/40/15 21/36/15
f 25/37/22 28/41/24 29/42/25 26/38/23
f 26/39/23 29/43/25 27/44/15 24/40/15
f 28/41/24 31/45/26 32/46/27 29/42/25
f 29/43/25 32/47/27 30/48/15 27/44/15
f 31/45/26 10/49/8 11/50/14 32/46/27
f 32/47/27 11/21/14 9/24/15 30/48/15
f 33/51/15 15/28/15 18/32/15 21/36/15
f 7/52/28 6/53/29 39/54/29 40/55/28
f 27/44/15 33/51/15 21/36/15 24/40/15
f 30/48/15 9/24/15 33/51/15 27/44/15
f 9/24/15 12/23/15 15/28/15 33/51/15
f 13/16/11 43/15/10 47/56/30 16/25/16
f 8/11/1 1/57/1 45/58/31 56/12/7
f 16/25/16 47/56/30 49/59/32 19/29/18
f 19/29/18 49/59/32 51/60/33 22/33/20
f 22/33/20 51/60/33 53/61/34 25/37/22
f 25/37/22 53/61/34 55/62/35 28/41/24
f 28/41/24 55/62/35 57/63/36 31/45/26
f 31/45/26 57/63/36 44/64/9 10/49/8
f 5/65/37 4/66/38 37/67/38 38/68/37
f 3/69/39 2/70/40 34/71/40 36/72/39
f 8/73/41 7/52/28 40/55/28 41/74/41
f 6/53/29 5/65/37 38/68/37 39/54/29
f 4/66/38 3/69/39 36/72/39 37/67/38
f 2/70/40 1/75/42 35/76/42 34/71/40
f 1/75/42 8/73/41 41/74/41 35/76/42
f 43/15/10 44/14/9 45/77/31 42/78/12
f 47/56/30 43/15/10 42/78/12 46/79/3
f 49/59/32 47/56/30 46/79/3 48/80/2
f 51/60/33 49/59/32 48/80/2 50/81/4
f 53/61/34 51/60/33 50/81/4 52/82/5
f 55/62/35 53/61/34 52/82/5 54/83/6
f 57/63/36 55/62/35 54/83/6 56/84/7
f 44/64/9 57/63/36 56/84/7 45/85/31
f 1/57/1 2/17/1 42/18/12 45/58/31
f 58/86/43 59/87/43 61/88/44 60/89/44
f 60/90/44 61/91/44 65/92/45 64/93/45
f 64/93/45 65/92/45 63/94/46 62/95/46
f 62/95/46 63/94/46 59/87/43 58/86/43
f 36/72/1 34/71/1 64/96/1 37/67/1
f 40/55/1 39/54/1 58/97/1 41/74/1
f 38/68/1 62/98/1 58/97/1 39/54/1
f 37/67/1 64/96/1 62/98/1 38/68/1
f 35/76/1 60/99/1 64/96/1 34/71/1
f 41/74/1 58/97/1 60/99/1 35/76/1
