# Blender 4.0.2
# www.blender.org
mtllib Sign_Mesh_Exit.mtl
o Exit_pannel_Low
v -0.200000 -0.095603 0.050000
v -0.195603 -0.100000 0.050000
v -0.195603 0.100000 0.050000
v -0.200000 0.095603 0.050000
v -0.195603 -0.100000 0.000000
v -0.200000 -0.095603 0.000000
v -0.200000 0.095603 0.000000
v -0.195603 0.100000 0.000000
v 0.195603 -0.100000 0.050000
v 0.200000 -0.095603 0.050000
v 0.200000 0.095603 0.050000
v 0.195603 0.100000 0.050000
v 0.200000 -0.095603 0.000000
v 0.195603 -0.100000 0.000000
v 0.195603 0.100000 0.000000
v 0.200000 0.095603 0.000000
v -0.195587 -0.100000 0.016667
v -0.200000 -0.095587 0.016667
v -0.200000 -0.095587 0.033333
v -0.195587 -0.100000 0.033333
v -0.195587 0.100000 0.033333
v -0.200000 0.095587 0.033333
v -0.200000 0.095587 0.016667
v -0.195587 0.100000 0.016667
v 0.200000 -0.095587 0.033333
v 0.195587 -0.100000 0.033333
v 0.200000 -0.095587 0.016667
v 0.195587 -0.100000 0.016667
v 0.195587 0.100000 0.016667
v 0.200000 0.095587 0.016667
v 0.200000 0.095587 0.033333
v 0.195587 0.100000 0.033333
v -0.192966 -0.097393 0.016667
v -0.197393 -0.092966 0.016667
v -0.192966 -0.097393 0.033333
v -0.197393 -0.092966 0.033333
v -0.197393 0.092966 0.033333
v -0.192966 0.097393 0.033333
v -0.197393 0.092966 0.016667
v -0.192966 0.097393 0.016667
v 0.192966 -0.097393 0.033333
v 0.197393 -0.092966 0.033333
v 0.192966 -0.097393 0.016667
v 0.197393 -0.092966 0.016667
v 0.197393 0.092966 0.016667
v 0.192966 0.097393 0.016667
v 0.197393 0.092966 0.033333
v 0.192966 0.097393 0.033333
v 0.191810 0.091810 0.050000
v 0.191810 -0.091810 0.050000
v -0.191810 0.091810 0.050000
v -0.191810 -0.091810 0.050000
vn -0.0000 -1.0000 -0.0000
vn 1.0000 -0.0000 -0.0000
vn -0.0000 1.0000 -0.0000
vn -1.0000 -0.0000 -0.0000
vn -0.0000 -0.0000 1.0000
vn -0.0000 -0.0000 -1.0000
vn -0.0000 1.0000 -0.0001
vn -1.0000 -0.0000 0.0001
vn -0.0000 -1.0000 -0.0001
vn 1.0000 -0.0000 0.0001
vn -0.0000 1.0000 0.0001
vn 1.0000 -0.0000 -0.0001
vn -0.0000 -1.0000 0.0001
vn -1.0000 -0.0000 -0.0001
vt 0.009688 0.398747
vt 0.453659 0.398747
vt 0.453641 0.417661
vt 0.009706 0.417661
vt 0.460715 0.398749
vt 0.677711 0.398870
vt 0.677682 0.417784
vt 0.460723 0.417663
vt 0.684746 0.360079
vt 0.240812 0.360006
vt 0.240797 0.341092
vt 0.684767 0.341164
vt 0.009709 0.312302
vt 0.453644 0.312374
vt 0.453659 0.331289
vt 0.009688 0.331217
vt 0.016773 0.369906
vt 0.233733 0.370027
vt 0.233740 0.388942
vt 0.016744 0.388821
vt 0.233730 0.360007
vt 0.016770 0.360093
vt 0.016744 0.341178
vt 0.233740 0.341093
vt 0.675869 0.301243
vt 0.231934 0.301243
vt 0.234909 0.298285
vt 0.672893 0.298285
vt 0.684767 0.388944
vt 0.240797 0.388944
vt 0.240815 0.370029
vt 0.684749 0.370029
vt 0.013819 0.276412
vt 0.230778 0.276412
vt 0.227803 0.279370
vt 0.016794 0.279370
vt 0.675869 0.264134
vt 0.231934 0.264135
vt 0.234909 0.261176
vt 0.672893 0.261176
vt 0.230778 0.264135
vt 0.013819 0.264135
vt 0.016794 0.261176
vt 0.227803 0.261176
vt 0.715593 0.554608
vt 0.710532 0.565535
vt 0.704667 0.559669
vt 0.231934 0.239303
vt 0.675869 0.239303
vt 0.672893 0.242262
vt 0.234909 0.242262
vt 0.016794 0.242262
vt 0.227803 0.242262
vt 0.234909 0.279370
vt 0.672893 0.279370
vt 0.231934 0.276412
vt 0.675869 0.276412
vt 0.227803 0.298285
vt 0.016794 0.298285
vt 0.230778 0.301243
vt 0.013819 0.301243
vt 0.013819 0.239303
vt 0.230778 0.239303
vt 0.009688 0.341183
vt 0.009688 0.360098
vt 0.009691 0.369900
vt 0.009688 0.388815
vt 0.009700 0.238066
vt 0.016782 0.238066
vt 0.009688 0.242262
vt 0.460726 0.312374
vt 0.460715 0.331288
vt 0.227815 0.238066
vt 0.234897 0.238066
vt 0.234897 0.302481
vt 0.227815 0.302481
vt 0.684764 0.417790
vt 0.684767 0.398876
vt 0.009688 0.298285
vt 0.016782 0.302481
vt 0.009700 0.302481
vt 0.009688 0.279370
vt 0.009688 0.261176
vt 0.009700 0.275175
vt 0.016782 0.275175
vt 0.234897 0.275175
vt 0.227815 0.275175
vt 0.016782 0.265372
vt 0.009700 0.265372
vt 0.234897 0.265372
vt 0.227815 0.265372
vt 0.677711 0.331203
vt 0.677685 0.312288
vt 0.960556 0.042830
vt 0.715593 0.042830
vt 0.710533 0.031903
vt 0.965617 0.031903
vt 0.704667 0.037769
vt 0.960556 0.554608
vt 0.965617 0.565535
vt 0.971483 0.559669
vt 0.971483 0.037769
vt 0.684767 0.331198
vt 0.684767 0.312283
s 1
f 5/1/1 14/2/1 28/3/1 17/4/1
f 13/5/2 16/6/2 30/7/2 27/8/2
f 20/9/1 26/10/1 9/11/1 2/12/1
f 32/13/3 21/14/3 3/15/3 12/16/3
f 18/17/4 23/18/4 7/19/4 6/20/4
f 25/21/2 31/22/2 11/23/2 10/24/2
f 29/25/5 24/26/5 40/27/5 46/28/5
f 15/29/3 8/30/3 24/31/3 29/32/3
f 19/33/6 22/34/6 37/35/6 36/36/6
f 17/37/5 28/38/5 43/39/5 33/40/5
f 27/41/5 30/42/5 45/43/5 44/44/5
f 49/45/5 11/46/5 12/47/5
f 26/48/6 20/49/6 35/50/6 41/51/6
f 44/44/2 45/43/2 47/52/2 42/53/2
f 46/28/3 40/27/3 38/54/3 48/55/3
f 33/40/1 43/39/1 41/51/1 35/50/1
f 21/56/6 32/57/6 48/55/6 38/54/6
f 36/36/4 37/35/4 39/58/4 34/59/4
f 23/60/5 18/61/5 34/59/5 39/58/5
f 31/62/6 25/63/6 42/53/6 47/52/6
f 8/30/7 7/19/4 23/18/8 24/31/3
f 14/2/9 13/5/2 27/8/10 28/3/1
f 12/64/11 11/23/2 31/22/12 32/65/3
f 17/66/13 18/17/4 6/20/14 5/67/1
f 32/68/6 31/69/6 47/52/6 48/70/6
f 21/14/7 22/71/4 4/72/8 3/15/3
f 41/51/6 42/53/6 25/73/6 26/74/6
f 26/10/9 25/21/2 10/24/10 9/11/1
f 24/75/5 23/76/5 39/58/5 40/27/5
f 29/77/11 30/7/2 16/6/12 15/78/3
f 33/79/5 34/59/5 18/80/5 17/81/5
f 35/82/1 36/36/4 34/59/4 33/79/1
f 40/27/3 39/58/4 37/35/4 38/54/3
f 43/39/1 44/44/2 42/53/2 41/51/1
f 48/70/3 47/52/2 45/43/2 46/83/3
f 35/82/6 20/84/6 19/85/6 36/36/6
f 21/86/6 38/54/6 37/35/6 22/87/6
f 46/83/5 45/43/5 30/88/5 29/89/5
f 28/90/5 27/91/5 44/44/5 43/39/5
f 1/92/4 4/72/4 22/71/4 19/93/4
f 52/94/5 51/95/5 4/96/5 1/97/5
f 4/96/5 51/95/5 3/98/5
f 50/99/5 10/100/5 11/46/5 49/45/5
f 9/101/5 10/100/5 50/99/5
f 2/102/5 52/94/5 1/97/5
f 51/95/5 49/45/5 12/47/5 3/98/5
f 2/102/5 9/101/5 50/99/5 52/94/5
f 51/95/5 52/94/5 50/99/5 49/45/5
f 2/103/13 1/92/4 19/93/14 20/104/1
