# Blender 4.0.2
# www.blender.org
mtllib Sign_Mesh_Arrow.mtl
o Cube
v 1.601769 -1.053235 -0.037588
v 1.601769 -0.000257 -0.037588
v 1.601769 -1.053235 -0.079087
v 1.601769 -0.000257 -0.079087
v 1.643268 -1.053235 -0.037588
v 1.643268 -0.000257 -0.037588
v 1.643268 -1.053235 -0.079087
v 1.643268 -0.000257 -0.079087
v 2.320207 -1.053235 -0.037588
v 2.320207 -0.000257 -0.037588
v 2.320207 -1.053235 -0.079087
v 2.320207 -0.000257 -0.079087
v 2.361706 -1.053235 -0.037588
v 2.361706 -0.000257 -0.037588
v 2.361706 -1.053235 -0.079087
v 2.361706 -0.000257 -0.079087
v 2.320207 -0.266627 -0.048131
v 1.643268 -0.266627 -0.048131
v 2.320207 -0.266627 -0.068544
v 1.643268 -0.266627 -0.068544
v 2.320207 -0.246213 -0.048131
v 1.643268 -0.246213 -0.048131
v 2.320207 -0.246213 -0.068544
v 1.643268 -0.246213 -0.068544
v 1.529841 -0.929766 0.037588
v 1.556420 -0.903188 0.000000
v 1.529841 -0.929766 -0.037588
v 1.503262 -0.956345 0.000000
v 1.513847 -0.891154 0.037588
v 1.550713 -0.883821 0.000000
v 1.513847 -0.891154 -0.037588
v 1.476982 -0.898487 0.000000
v 1.513847 -0.691494 0.037588
v 1.550713 -0.698827 0.000000
v 1.513847 -0.691494 -0.037588
v 1.476982 -0.684161 0.000000
v 1.529841 -0.652882 0.037588
v 1.556420 -0.679460 0.000000
v 1.529841 -0.652882 -0.037588
v 1.503262 -0.626303 0.000000
v 1.568453 -0.636888 0.037588
v 1.575786 -0.673754 -0.000000
v 1.568453 -0.636888 -0.037588
v 1.561120 -0.600022 0.000000
v 2.034313 -0.636888 0.037588
v 2.070337 -0.673754 -0.000000
v 2.034313 -0.636888 -0.037588
v 1.998289 -0.600022 0.000000
v 2.034313 -0.450268 0.037588
v 2.070337 -0.462137 0.000000
v 2.034313 -0.450268 -0.037588
v 1.998289 -0.439540 0.000000
v 2.050174 -0.426001 0.037588
v 2.050174 -0.426001 -0.037588
v 2.035446 -0.391419 0.000000
v 2.076039 -0.430887 0.037588
v 2.076039 -0.430887 -0.037588
v 2.092182 -0.396942 0.000000
v 2.461276 -0.756100 0.037588
v 2.440972 -0.791324 0.000000
v 2.461276 -0.756099 -0.037588
v 2.490903 -0.732967 0.000000
v 2.478560 -0.791324 0.037588
v 2.478560 -0.791324 -0.037588
v 2.516148 -0.791324 0.000000
v 2.461276 -0.826549 0.037588
v 2.461276 -0.826549 -0.037588
v 2.490903 -0.849681 0.000000
v 2.076039 -1.151761 0.037588
v 2.070337 -1.120511 -0.000000
v 2.076039 -1.151761 -0.037588
v 2.092182 -1.185707 0.000000
v 2.050174 -1.156647 0.037588
v 2.050174 -1.156647 -0.037588
v 2.035446 -1.191229 0.000000
v 2.034313 -1.132380 0.037588
v 2.034313 -1.132380 -0.037588
v 1.998289 -1.143108 0.000000
v 2.034313 -0.945760 0.037588
v 2.070337 -0.908894 0.000000
v 2.034313 -0.945760 -0.037588
v 1.998289 -0.982626 0.000000
v 1.568453 -0.945760 0.037588
v 1.575786 -0.908894 0.000000
v 1.568453 -0.945760 -0.037588
v 1.561120 -0.982626 0.000000
vn -1.0000 -0.0000 -0.0000
vn -0.0000 -0.0000 -1.0000
vn 1.0000 -0.0000 -0.0000
vn -0.0000 -0.0000 1.0000
vn -0.0000 -1.0000 -0.0000
vn -0.0000 1.0000 -0.0000
vn -0.1244 -0.1244 0.9844
vn -0.0815 -0.0301 0.9962
vn -0.9788 -0.2047 -0.0000
vn -0.7071 -0.7071 -0.0000
vn 0.7071 0.7071 -0.0000
vn 0.9845 0.1756 -0.0000
vn -0.1244 -0.1244 -0.9844
vn -0.0815 -0.0301 -0.9962
vn -0.0815 0.0301 0.9962
vn -0.9788 0.2047 -0.0000
vn 0.9845 -0.1756 -0.0000
vn -0.0815 0.0301 -0.9962
vn -0.1244 0.1244 0.9844
vn -0.7071 0.7071 -0.0000
vn 0.7071 -0.7071 -0.0000
vn -0.1244 0.1244 -0.9844
vn -0.0301 0.0815 0.9962
vn -0.2047 0.9788 -0.0000
vn 0.1756 -0.9845 -0.0000
vn -0.0301 0.0815 -0.9962
vn 0.1958 -0.1885 0.9624
vn -0.7136 0.7005 -0.0000
vn 0.7052 -0.7091 -0.0000
vn 0.1958 -0.1885 -0.9624
vn -0.2184 -0.0152 0.9757
vn -0.9511 0.3090 -0.0000
vn 0.3560 -0.9345 -0.0000
vn -0.2184 -0.0152 -0.9757
vn -0.1039 0.2620 0.9595
vn -0.3947 0.9188 -0.0000
vn -0.1039 0.2620 -0.9595
vn 0.1802 0.1298 0.9750
vn 0.4031 0.9151 -0.0000
vn 0.1802 0.1298 -0.9750
vn 0.0663 0.1145 0.9912
vn 0.7966 0.6045 -0.0000
vn 0.0663 0.1145 -0.9912
vn 0.2171 -0.0000 0.9761
vn 0.2171 -0.0000 -0.9761
vn 0.0663 -0.1145 -0.9912
vn -0.1039 -0.2620 -0.9595
vn -0.2184 0.0152 -0.9757
vn 0.3560 0.9345 -0.0000
vn 0.1802 -0.1298 -0.9750
vn 0.0663 -0.1145 0.9912
vn 0.7966 -0.6045 -0.0000
vn 0.1802 -0.1298 0.9750
vn 0.4031 -0.9151 -0.0000
vn -0.1039 -0.2620 0.9595
vn -0.3947 -0.9188 -0.0000
vn -0.2184 0.0152 0.9757
vn -0.9511 -0.3090 -0.0000
vn 0.1958 0.1885 0.9624
vn -0.7136 -0.7005 -0.0000
vn 0.7052 0.7091 -0.0000
vn 0.1958 0.1885 -0.9624
vn -0.0301 -0.0815 0.9962
vn -0.2047 -0.9788 -0.0000
vn 0.1756 0.9845 -0.0000
vn -0.0301 -0.0815 -0.9962
vt 0.152597 0.477876
vt 0.152597 0.990842
vt 0.132380 0.990842
vt 0.132380 0.477876
vt 0.112163 0.990842
vt 0.112163 0.477876
vt 0.193030 0.477876
vt 0.193030 0.990842
vt 0.172813 0.990842
vt 0.172813 0.477876
vt 0.152597 0.457659
vt 0.172813 0.457659
vt 0.033303 0.476458
vt 0.033303 0.989425
vt 0.013087 0.989425
vt 0.013086 0.476458
vt 0.093953 0.476458
vt 0.093953 0.989425
vt 0.073737 0.989425
vt 0.073736 0.476458
vt 0.053520 0.989425
vt 0.053520 0.476458
vt 0.033303 0.456241
vt 0.053520 0.456241
vt 0.644488 0.742053
vt 0.314711 0.742053
vt 0.314711 0.732108
vt 0.644488 0.732108
vt 0.644488 0.771887
vt 0.314711 0.771887
vt 0.314711 0.761942
vt 0.644488 0.761942
vt 0.314711 0.751998
vt 0.644488 0.751997
vt 0.964990 0.919492
vt 0.969094 0.910454
vt 0.981615 0.913613
vt 0.974432 0.928350
vt 0.956611 0.911548
vt 0.957793 0.907603
vt 0.244619 0.827701
vt 0.235394 0.806720
vt 0.261555 0.800340
vt 0.264072 0.809651
vt 0.222555 0.847859
vt 0.206542 0.813690
vt 0.968611 0.865996
vt 0.980917 0.862638
vt 0.957407 0.869136
vt 0.238177 0.702814
vt 0.264512 0.710465
vt 0.209091 0.694515
vt 0.964369 0.857062
vt 0.973712 0.848122
vt 0.956168 0.865147
vt 0.248468 0.681889
vt 0.267684 0.701292
vt 0.226738 0.660468
vt 0.955477 0.852456
vt 0.959450 0.840052
vt 0.952096 0.863962
vt 0.269524 0.671312
vt 0.277279 0.698405
vt 0.260621 0.642072
vt 0.844385 0.845588
vt 0.854060 0.833897
vt 0.832845 0.858078
vt 0.529126 0.659403
vt 0.555516 0.688963
vt 0.507025 0.631748
vt 0.835328 0.805228
vt 0.845448 0.798451
vt 0.826583 0.811645
vt 0.551923 0.565612
vt 0.572067 0.580943
vt 0.528585 0.549382
vt 0.830313 0.800710
vt 0.833796 0.788811
vt 0.556171 0.527368
vt 0.563809 0.555276
vt 0.824270 0.801746
vt 0.819677 0.790368
vt 0.589048 0.531580
vt 0.577866 0.557941
vt 0.744075 0.872266
vt 0.733500 0.865494
vt 0.752669 0.881558
vt 0.762094 0.725746
vt 0.741660 0.747078
vt 0.787045 0.710374
vt 0.740465 0.881204
vt 0.727421 0.880628
vt 0.770155 0.746748
vt 0.762940 0.768312
vt 0.561234 0.958947
vt 0.547918 0.948965
vt 0.568094 0.931153
vt 0.575850 0.955132
vt 0.800617 0.745932
vt 0.743396 0.890495
vt 0.731971 0.896573
vt 0.789358 0.782959
vt 0.822142 0.971890
vt 0.816139 0.983359
vt 0.825640 0.961679
vt 0.589405 0.982141
vt 0.828374 0.973632
vt 0.830701 0.986518
vt 0.555288 0.988935
vt 0.834149 0.969454
vt 0.844025 0.977809
vt 0.524531 0.968078
vt 0.849284 0.929434
vt 0.857954 0.941418
vt 0.839697 0.916944
vt 0.514157 0.854922
vt 0.537050 0.826100
vt 0.493447 0.882571
vt 0.956202 0.924209
vt 0.960200 0.936408
vt 0.952601 0.912915
vt 0.264830 0.838831
vt 0.273317 0.812710
vt 0.255185 0.867024
s 0
f 1/1/1 2/2/1 4/3/1 3/4/1
f 3/4/2 4/3/2 8/5/2 7/6/2
f 7/7/3 8/8/3 6/9/3 5/10/3
f 5/10/4 6/9/4 2/2/4 1/1/4
f 3/11/5 7/12/5 5/10/5 1/1/5
f 9/13/1 10/14/1 12/15/1 11/16/1
f 11/17/2 12/18/2 16/19/2 15/20/2
f 15/20/3 16/19/3 14/21/3 13/22/3
f 13/22/4 14/21/4 10/14/4 9/13/4
f 11/23/5 15/24/5 13/22/5 9/13/5
f 17/25/5 18/26/5 20/27/5 19/28/5
f 19/29/2 20/30/2 24/31/2 23/32/2
f 23/32/6 24/31/6 22/33/6 21/34/6
f 21/34/4 22/33/4 18/26/4 17/25/4
s 1
f 25/35/7 29/36/8 32/37/9 28/38/10
f 26/39/11 30/40/12 29/36/8 25/35/7
f 27/41/13 31/42/14 30/43/12 26/44/11
f 28/45/10 32/46/9 31/42/14 27/41/13
f 29/36/8 33/47/15 36/48/16 32/37/9
f 30/40/12 34/49/17 33/47/15 29/36/8
f 31/42/14 35/50/18 34/51/17 30/43/12
f 32/46/9 36/52/16 35/50/18 31/42/14
f 33/47/15 37/53/19 40/54/20 36/48/16
f 34/49/17 38/55/21 37/53/19 33/47/15
f 35/50/18 39/56/22 38/57/21 34/51/17
f 36/52/16 40/58/20 39/56/22 35/50/18
f 37/53/19 41/59/23 44/60/24 40/54/20
f 38/55/21 42/61/25 41/59/23 37/53/19
f 39/56/22 43/62/26 42/63/25 38/57/21
f 40/58/20 44/64/24 43/62/26 39/56/22
f 41/59/23 45/65/27 48/66/28 44/60/24
f 42/61/25 46/67/29 45/65/27 41/59/23
f 43/62/26 47/68/30 46/69/29 42/63/25
f 44/64/24 48/70/28 47/68/30 43/62/26
f 45/65/27 49/71/31 52/72/32 48/66/28
f 46/67/29 50/73/33 49/71/31 45/65/27
f 47/68/30 51/74/34 50/75/33 46/69/29
f 48/70/28 52/76/32 51/74/34 47/68/30
f 49/71/31 53/77/35 55/78/36 52/72/32
f 52/76/32 55/79/36 54/80/37 51/74/34
f 53/77/35 56/81/38 58/82/39 55/78/36
f 55/79/36 58/83/39 57/84/40 54/80/37
f 56/81/38 59/85/41 62/86/42 58/82/39
f 50/73/33 60/87/1 59/85/41 56/81/38
f 57/84/40 61/88/43 60/89/1 50/75/33
f 58/83/39 62/90/42 61/88/43 57/84/40
f 59/85/41 63/91/44 65/92/3 62/86/42
f 64/93/45 67/94/46 60/89/1 61/88/43
f 74/95/47 77/96/48 70/97/49 71/98/50
f 62/90/42 65/99/3 64/93/45 61/88/43
f 63/91/44 66/100/51 68/101/52 65/92/3
f 65/99/3 68/102/52 67/94/46 64/93/45
f 66/100/51 69/103/53 72/104/54 68/101/52
f 60/87/1 70/105/49 69/103/53 66/100/51
f 67/94/46 71/98/50 70/97/49 60/89/1
f 68/102/52 72/106/54 71/98/50 67/94/46
f 69/103/53 73/107/55 75/108/56 72/104/54
f 50/73/33 56/81/38 53/77/35 49/71/31
f 54/80/37 57/84/40 50/75/33 51/74/34
f 72/106/54 75/109/56 74/95/47 71/98/50
f 73/107/55 76/110/57 78/111/58 75/108/56
f 75/109/56 78/112/58 77/96/48 74/95/47
f 76/110/57 79/113/59 82/114/60 78/111/58
f 70/105/49 80/115/61 79/113/59 76/110/57
f 77/96/48 81/116/62 80/117/61 70/97/49
f 78/112/58 82/118/60 81/116/62 77/96/48
f 79/113/59 83/119/63 86/120/64 82/114/60
f 80/115/61 84/121/65 83/119/63 79/113/59
f 81/116/62 85/122/66 84/123/65 80/117/61
f 82/118/60 86/124/64 85/122/66 81/116/62
f 83/119/63 25/35/7 28/38/10 86/120/64
f 84/121/65 26/39/11 25/35/7 83/119/63
f 85/122/66 27/41/13 26/44/11 84/123/65
f 86/124/64 28/45/10 27/41/13 85/122/66
f 70/105/49 76/110/57 73/107/55 69/103/53
f 60/87/1 66/100/51 63/91/44 59/85/41
