# Blender 4.0.2
# www.blender.org
mtllib Slope_Mesh.mtl
o low
v -0.378000 0.000000 2.000000
v -0.500000 0.000000 1.878000
v -0.464267 0.000000 1.964267
v -0.500000 0.878000 1.878000
v -0.378000 0.924600 2.000000
v -0.390880 1.054560 1.878000
v -0.461600 0.890000 1.964267
v -0.451159 0.969814 1.948437
v -0.384440 1.014847 1.964267
v -0.470707 0.981896 1.878000
v -0.500000 0.000000 -0.878000
v -0.378000 0.000000 -1.000000
v -0.464267 0.000000 -0.964267
v -0.390880 1.054560 -0.878000
v -0.378000 0.924600 -1.000000
v -0.500000 0.878000 -0.878000
v -0.384440 1.014847 -0.964267
v -0.451159 0.969814 -0.948437
v -0.461600 0.890000 -0.964267
v -0.470707 0.981896 -0.878000
v 0.500000 0.000000 1.878000
v 0.378000 0.000000 2.000000
v 0.464267 0.000000 1.964267
v 0.390880 1.445440 1.878000
v 0.378000 1.302600 2.000000
v 0.500000 1.378000 1.878000
v 0.384440 1.399287 1.964267
v 0.451159 1.420973 1.948437
v 0.461600 1.351600 1.964267
v 0.470707 1.452603 1.878000
v 0.378000 0.000000 -1.000000
v 0.500000 0.000000 -0.878000
v 0.464267 0.000000 -0.964267
v 0.390880 1.445440 -0.878000
v 0.500000 1.378000 -0.878000
v 0.378000 1.302600 -1.000000
v 0.470707 1.452603 -0.878000
v 0.451159 1.420973 -0.948437
v 0.461600 1.351600 -0.964267
v 0.384440 1.399287 -0.964267
vn -0.4472 0.8944 -0.0000
vn 1.0000 -0.0000 -0.0000
vn -0.0000 -0.0000 -1.0000
vn -0.8506 0.5258 0.0011
vn -0.8506 0.5258 -0.0011
vn -0.0000 -0.0000 1.0000
vn -1.0000 -0.0000 -0.0000
vn -0.7045 0.0011 0.7097
vn -0.6960 0.4302 0.5749
vn -0.8507 0.5257 -0.0011
vn -0.3139 0.6277 0.7124
vn -0.6961 0.4302 0.5749
vn -0.3139 0.6277 -0.7124
vn -0.6960 0.4302 -0.5749
vn -0.7045 0.0011 -0.7097
vn -0.8507 0.5257 0.0011
vn -0.3139 0.6277 0.7123
vn 0.3913 0.6332 0.6678
vn 0.5257 0.8507 -0.0018
vn 0.7043 0.0007 0.7099
vn 0.3913 0.6331 0.6678
vn 0.5257 0.8506 -0.0018
vn 0.7044 0.0007 0.7098
vn 0.5257 0.8507 0.0018
vn 0.3913 0.6331 -0.6678
vn 0.7044 0.0007 -0.7098
vn 0.3913 0.6332 -0.6678
vn 0.5257 0.8506 0.0018
vn -0.3139 0.6277 -0.7123
vn 0.7043 0.0007 -0.7099
vn -0.7045 0.0010 -0.7097
vn 0.7043 0.0008 0.7099
vt 0.801634 0.637969
vt 0.605217 0.638982
vt 0.605435 0.026922
vt 0.800515 0.029099
vt 0.336002 0.649058
vt 0.031136 0.640568
vt 0.023720 0.037770
vt 0.336002 0.026941
vt 0.601979 0.984546
vt 0.609469 0.778123
vt 0.776408 0.699841
vt 0.775250 0.988357
vt 0.581055 0.639889
vt 0.581055 0.025960
vt 0.541628 0.677487
vt 0.542786 0.966003
vt 0.375847 0.887722
vt 0.368357 0.681298
vt 0.375075 0.640783
vt 0.371451 0.661569
vt 0.353245 0.658152
vt 0.351169 0.641522
vt 0.373530 0.909142
vt 0.357322 0.899978
vt 0.355234 0.881478
vt 0.583404 0.008930
vt 0.602141 0.005715
vt 0.601850 0.660129
vt 0.583282 0.656816
vt 0.588856 0.784366
vt 0.590944 0.765867
vt 0.607152 0.756702
vt 0.371758 0.031954
vt 0.347433 0.031413
vt 0.349411 0.014451
vt 0.367937 0.010832
vt 0.795774 0.007607
vt 0.812072 0.011018
vt 0.818335 0.028249
vt 0.562815 0.977695
vt 0.560912 0.994285
vt 0.545063 0.989027
vt 0.005715 0.037240
vt 0.011740 0.019825
vt 0.028020 0.016130
vt 0.819814 0.638831
vt 0.813340 0.656363
vt 0.796747 0.659720
vt 0.035603 0.661633
vt 0.019724 0.658253
vt 0.013595 0.641422
vt 0.778685 0.676817
vt 0.794534 0.671560
vt 0.796437 0.688149
vt 0.347433 0.682059
vt 0.569148 0.665998
vt 0.569624 0.644939
vt 0.581055 0.983786
vt 0.569076 0.005715
vt 0.569624 0.027140
vt 0.335424 0.669771
vt 0.796437 0.988416
vt 0.562815 0.677428
vt 0.335267 0.005715
s 1
f 34/1/1 14/2/1 6/3/1 24/4/1
f 32/5/2 35/6/2 26/7/2 21/8/2
f 12/9/3 15/10/3 36/11/3 31/12/3
f 6/3/1 14/2/1 20/13/4 10/14/5
f 22/15/6 25/16/6 5/17/6 1/18/6
f 4/19/7 7/20/8 8/21/9 10/22/10
f 5/17/6 9/23/11 8/24/12 7/25/8
f 6/3/1 10/14/5 8/26/9 9/27/11
f 14/2/1 17/28/13 18/29/14 20/13/4
f 15/10/3 19/30/15 18/31/14 17/32/13
f 16/33/7 20/34/16 18/35/14 19/36/15
f 24/4/1 27/37/17 28/38/18 30/39/19
f 25/16/6 29/40/20 28/41/21 27/42/17
f 26/7/2 30/43/22 28/44/18 29/45/23
f 34/1/1 37/46/24 38/47/25 40/48/13
f 35/6/2 39/49/26 38/50/27 37/51/28
f 36/11/3 40/52/29 38/53/25 39/54/30
f 1/18/6 5/17/6 7/25/8 3/55/8
f 3/56/8 7/20/8 4/19/7 2/57/7
f 10/22/10 20/34/16 16/33/7 4/19/7
f 34/1/1 24/4/1 30/39/19 37/46/24
f 15/10/3 12/9/3 13/58/15 19/30/15
f 19/36/15 13/59/31 11/60/7 16/33/7
f 14/2/1 34/1/1 40/48/13 17/28/13
f 17/32/13 40/52/29 36/11/3 15/10/3
f 35/6/2 32/5/2 33/61/30 39/49/26
f 39/54/30 33/62/30 31/12/3 36/11/3
f 37/51/28 30/43/22 26/7/2 35/6/2
f 2/57/7 4/19/7 16/33/7 11/60/7
f 25/16/6 22/15/6 23/63/20 29/40/20
f 29/45/23 23/64/32 21/8/2 26/7/2
f 24/4/1 6/3/1 9/27/11 27/37/17
f 27/42/17 9/23/11 5/17/6 25/16/6
